<?xml version="1.0" encoding="UTF-8"?>
<svg shape-rendering="crispEdges" version="1.1" viewBox="0 -.5 100 100" xmlns="http://www.w3.org/2000/svg" xmlns:cc="http://creativecommons.org/ns#" xmlns:dc="http://purl.org/dc/elements/1.1/" xmlns:rdf="http://www.w3.org/1999/02/22-rdf-syntax-ns#" xmlns:xlink="http://www.w3.org/1999/xlink">
 <rect y="3.5" width="100" height="68" fill="#45283c"/>
 <path d="m0 67.5v3h10v1h-10v28h100v-32z" fill="#df7126"/>
 <path d="m0 0h100m-100 1h100m-100 1h100m-100 1h100m-99 1h1m1 0h1m1 0h1m1 0h1m1 0h1m1 0h1m1 0h1m1 0h1m1 0h1m1 0h1m1 0h1m1 0h1m1 0h1m1 0h1m1 0h1m1 0h1m1 0h1m1 0h1m1 0h1m1 0h1m1 0h1m1 0h1m1 0h1m1 0h1m1 0h1m1 0h1m1 0h1m1 0h1m1 0h1m1 0h1m1 0h1m1 0h1m1 0h1m1 0h1m1 0h1m1 0h1m1 0h1m1 0h1m1 0h1m1 0h1m1 0h1m1 0h1m1 0h1m1 0h1m1 0h1m1 0h1m1 0h1m1 0h1m1 0h1m1 0h1m-100 1h100m-99 1h1m1 0h1m1 0h1m1 0h1m1 0h1m1 0h1m1 0h1m1 0h1m1 0h1m1 0h1m1 0h1m1 0h1m1 0h1m1 0h1m1 0h1m1 0h1m1 0h1m1 0h1m1 0h1m1 0h1m1 0h1m1 0h1m1 0h1m1 0h1m1 0h1m1 0h1m1 0h1m1 0h1m1 0h1m1 0h1m1 0h1m1 0h1m1 0h1m1 0h1m1 0h1m1 0h1m1 0h1m1 0h1m1 0h1m1 0h1m1 0h1m1 0h1m1 0h1m1 0h1m1 0h1m1 0h1m1 0h1m1 0h1m1 0h1m1 0h1m-100 1h3m1 0h3m1 0h3m1 0h3m1 0h3m1 0h3m1 0h3m1 0h3m1 0h3m1 0h3m1 0h3m1 0h3m1 0h3m1 0h3m1 0h3m1 0h3m1 0h3m1 0h3m1 0h3m1 0h3m1 0h3m1 0h3m1 0h3m1 0h3m1 0h3m-98 1h1m1 0h1m1 0h1m1 0h1m1 0h1m1 0h1m1 0h1m1 0h1m1 0h1m1 0h1m1 0h1m1 0h1m1 0h1m1 0h1m1 0h1m1 0h1m1 0h1m1 0h1m1 0h1m1 0h1m1 0h1m1 0h1m1 0h1m1 0h1m1 0h1m1 0h1m1 0h1m1 0h1m1 0h1m1 0h1m1 0h1m1 0h1m1 0h1m1 0h1m1 0h1m1 0h1m1 0h1m1 0h1m1 0h1m1 0h1m1 0h1m1 0h1m1 0h1m1 0h1m1 0h1m1 0h1m1 0h1m1 0h1m1 0h1m1 0h1m-100 1h1m1 0h1m1 0h1m1 0h1m1 0h1m1 0h1m1 0h1m1 0h1m1 0h1m1 0h1m1 0h1m1 0h1m1 0h1m1 0h1m1 0h1m1 0h1m1 0h1m1 0h1m1 0h1m1 0h1m1 0h1m1 0h1m1 0h1m1 0h1m1 0h1m1 0h1m1 0h1m1 0h1m1 0h1m1 0h1m1 0h1m1 0h1m1 0h1m1 0h1m1 0h1m1 0h1m1 0h1m1 0h1m1 0h1m1 0h1m1 0h1m1 0h1m1 0h1m1 0h1m1 0h1m1 0h1m1 0h1m1 0h1m1 0h1m1 0h1m-98 1h1m3 0h1m3 0h1m3 0h1m3 0h1m3 0h1m3 0h1m3 0h1m3 0h1m3 0h1m3 0h1m3 0h1m3 0h1m3 0h1m3 0h1m3 0h1m3 0h1m3 0h1m3 0h1m3 0h1m3 0h1m3 0h1m3 0h1m3 0h1m3 0h1m-98 1h1m1 0h1m1 0h1m1 0h1m1 0h1m1 0h1m1 0h1m1 0h1m1 0h1m1 0h1m1 0h1m1 0h1m1 0h1m1 0h1m1 0h1m1 0h1m1 0h1m1 0h1m1 0h1m1 0h1m1 0h1m1 0h1m1 0h1m1 0h1m1 0h1m1 0h1m1 0h1m1 0h1m1 0h1m1 0h1m1 0h1m1 0h1m1 0h1m1 0h1m1 0h1m1 0h1m1 0h1m1 0h1m1 0h1m1 0h1m1 0h1m1 0h1m1 0h1m1 0h1m1 0h1m1 0h1m1 0h1m1 0h1m1 0h1m1 0h1m-97 2h1m3 0h1m3 0h1m3 0h1m3 0h1m3 0h1m3 0h1m3 0h1m3 0h1m3 0h1m3 0h1m3 0h1m3 0h1m3 0h1m3 0h1m3 0h1m3 0h1m3 0h1m3 0h1m3 0h1m3 0h1m3 0h1m3 0h1m3 0h1m3 0h1m-32 5h9m-13 1h4m8 0h5m-19 1h3m15 0h4m-23 1h2m20 0h2m-25 1h2m22 0h2m-27 1h1m25 0h2m-28 1h1m26 0h2m-30 1h2m27 0h2m-32 1h1m30 0h2m-33 1h1m31 0h1m-34 1h1m32 0h2m-35 1h1m33 0h1m-35 1h1m33 0h1m-35 1h1m15 0h3m15 0h1m-36 1h1m15 0h1m3 0h2m13 0h1m-36 1h1m15 0h1m5 0h1m12 0h1m-36 1h1m13 0h4m4 0h2m2 0h2m7 0h1m-36 1h1m12 0h1m3 0h2m4 0h1m2 0h2m7 0h1m-37 1h2m12 0h2m4 0h1m3 0h1m2 0h3m6 0h1m-37 1h2m13 0h1m5 0h5m1 0h1m1 0h1m6 0h1m-37 1h2m14 0h1m4 0h1m2 0h2m1 0h1m1 0h2m5 0h1m-38 1h2m16 0h1m3 0h1m3 0h3m2 0h1m4 0h2m-38 1h1m18 0h3m5 0h2m2 0h2m3 0h1m-38 1h2m11 0h1m7 0h1m11 0h1m2 0h2m-39 1h2m12 0h1m7 0h1m11 0h4m-38 1h1m13 0h2m6 0h2m11 0h2m-38 1h2m14 0h1m7 0h1m12 0h2m-39 1h2m14 0h2m6 0h2m12 0h1m-39 1h2m15 0h1m7 0h2m10 0h2m-39 1h2m16 0h1m7 0h1m9 0h2m-39 1h2m17 0h2m6 0h2m7 0h1m-38 1h3m18 0h1m7 0h2m5 0h2m-38 1h3m18 0h2m7 0h1m5 0h2m-39 1h1m2 0h1m19 0h1m7 0h2m4 0h3m-40 1h1m2 0h2m18 0h2m7 0h2m2 0h2m1 0h2m-41 1h1m2 0h2m19 0h2m7 0h1m2 0h3m2 0h2m-78 1h1m34 0h1m2 0h2m20 0h1m8 0h3m1 0h1m3 0h1m-78 1h1m34 0h1m3 0h2m1 0h2m5 0h1m11 0h1m7 0h2m2 0h1m3 0h2m-80 1h1m35 0h1m4 0h4m5 0h2m8 0h4m7 0h4m3 0h2m-80 1h1m35 0h2m6 0h2m5 0h2m4 0h5m1 0h2m7 0h2m3 0h4m-44 1h1m7 0h13m6 0h1m8 0h1m2 0h2m2 0h1m-44 1h1m26 0h2m7 0h4m3 0h1m-45 1h1m28 0h1m7 0h1m6 0h1m-45 1h1m28 0h2m5 0h2m6 0h1m-45 1h1m19 0h6m4 0h2m2 0h3m7 0h1m-45 1h2m15 0h4m5 0h3m2 0h4m8 0h2m-45 1h3m11 0h10m4 0h2m12 0h2m-44 1h1m1 0h2m7 0h7m5 0h3m3 0h2m11 0h1m-44 1h2m1 0h10m2 0h3m8 0h2m3 0h1m11 0h1m-44 1h1m3 0h2m4 0h1m4 0h3m9 0h2m2 0h2m10 0h1m-44 1h1m3 0h2m4 0h1m3 0h3m11 0h2m2 0h2m9 0h1m-44 1h1m4 0h1m4 0h1m3 0h3m12 0h2m2 0h2m7 0h2m-45 1h2m4 0h1m4 0h1m3 0h2m14 0h1m4 0h3m2 0h3m-44 1h1m5 0h1m4 0h1m3 0h2m14 0h2m5 0h4m-42 1h1m5 0h1m4 0h1m3 0h2m15 0h2m7 0h2m-43 1h1m5 0h1m3 0h2m3 0h1m17 0h3m5 0h3m-44 1h1m5 0h1m3 0h1m4 0h1m20 0h9m-46 1h1m6 0h1m3 0h1m4 0h1m21 0h1m6 0h1m-46 1h1m6 0h1m3 0h1m3 0h2m21 0h2m4 0h3m-47 1h1m5 0h2m3 0h1m3 0h2m17 0h1m4 0h6m1 0h1m-47 1h1m5 0h1m4 0h1m3 0h2m16 0h1m10 0h1m1 0h1m-47 1h1m4 0h2m3 0h2m2 0h1m1 0h1m16 0h1m10 0h1m1 0h2m-48 1h1m4 0h1m4 0h1m3 0h1m1 0h1m15 0h2m10 0h1m2 0h2m-49 1h1m4 0h1m4 0h1m3 0h1m1 0h1m15 0h1m11 0h1m3 0h1m-49 1h1m3 0h2m4 0h1m2 0h1m3 0h1m14 0h1m11 0h1m3 0h1m-49 1h1m2 0h2m4 0h1m3 0h1m3 0h1m14 0h1m11 0h2m2 0h1m-49 1h2m1 0h1m5 0h1m3 0h1m3 0h1m14 0h1m11 0h2m2 0h1m-48 1h3m5 0h1m3 0h1m3 0h1m14 0h1m11 0h3m1 0h1m-48 1h2m5 0h2m3 0h1m3 0h1m14 0h1m11 0h1m1 0h3m-48 1h1m6 0h1m3 0h1m4 0h1m14 0h1m11 0h1m1 0h2m-48 1h1m7 0h4m5 0h1m14 0h1m11 0h1m1 0h1m-47 1h1m7 0h2m8 0h1m13 0h1m11 0h3m-48 1h2m6 0h3m8 0h1m13 0h1m11 0h2m-47 1h1m7 0h3m8 0h1m14 0h1m-36 1h2m6 0h1m1 0h3m7 0h1m14 0h1m-37 1h2m6 0h2m1 0h3m7 0h1m14 0h1m-37 1h1m6 0h2m3 0h2m7 0h1m14 0h1m-38 1h2m5 0h2m4 0h3m6 0h1m14 0h1m-39 1h2m5 0h2m6 0h2m6 0h1m14 0h1m-39 1h1m5 0h2m7 0h2m6 0h1m-24 1h1m4 0h2m1 0h1m7 0h2m5 0h1m-24 1h1m2 0h3m2 0h1m8 0h1m5 0h1" stroke="#000"/>
 <path d="m13 18h11m-13 1h3m8 0h3m-15 1h2m1 0h13m-16 1h1m1 0h11m1 0h2m-17 1h15m1 0h3m-22 1h11m2 0h5m1 0h3m-24 1h12m2 0h7m1 0h3m-27 1h27m-27 1h27m-27 1h2m1 0h2m1 0h21m-27 1h28m-28 1h28m-28 1h28m-28 1h28m-27 1h27m-24 1h24m-17 1h2m1 0h14m-16 1h2m1 0h12m-15 1h2m1 0h12m-15 1h2m1 0h12m-14 1h2m1 0h11m-14 1h2m1 0h11m52 0h2m-68 1h2m1 0h11m52 0h2m-68 1h1m1 0h12m49 0h2m-65 1h1m1 0h12m51 0h1m-66 1h1m1 0h12m52 0h1m-67 1h1m1 0h11m-14 1h2m1 0h11m-14 1h2m1 0h11m-14 1h2m1 0h10m-14 1h2m1 0h11m-14 1h2m1 0h11m-14 1h1m1 0h11m-14 1h2m1 0h11m-14 1h1m1 0h12m-14 1h1m1 0h11m-12 1h12m-12 1h11m-12 1h12m-12 1h12m-15 1h1m1 0h13m-15 1h1m1 0h13m-15 1h1m1 0h13m-15 1h1m1 0h12m-15 1h1m1 0h13m-15 1h1m1 0h13m-16 1h2m1 0h13m-16 1h2m1 0h13m-16 1h1m1 0h13m-15 1h1m1 0h13m-16 1h2m1 0h13m-16 1h1m1 0h14m-16 1h1m1 0h14m-16 1h1m2 0h13m-16 1h1m2 0h13m-16 1h1m2 0h14m-17 1h2m1 0h16m17 0h2m-37 1h1m2 0h16m14 0h3m-36 1h2m2 0h17m9 0h6m-36 1h2m2 0h32m-35 1h1m3 0h31m-35 1h2m2 0h31m-35 1h2m3 0h30m-34 1h2m2 0h30m-33 1h2m2 0h29m-32 1h2m2 0h28m-31 1h2m3 0h26m-30 1h3m2 0h26m-30 1h4m1 0h25m-28 1h3m2 0h23m-26 1h3m1 0h21m-23 1h2m2 0h19m-21 1h20m47 0h2m-65 1h14m47 0h5m-7 1h4m1 0h4m-10 1h3m2 0h5m-12 1h4m2 0h7m-15 1h5m2 0h9m-19 1h5m3 0h11m-24 1h8m2 0h14m-27 1h8m3 0h16m-31 1h7m5 0h19" stroke="#1f0606"/>
 <path d="m67 19h8m-11 1h3m8 0h4m-17 1h1m16 0h3m-21 1h1m20 0h1m-24 1h2m22 0h1m-25 1h1m24 0h1m-26 1h1m25 0h1m-29 1h2m27 0h1m-1 1h2m-32 1h1m30 0h1m-32 1h1m30 0h2m-33 1h1m31 0h1m-33 1h1m31 0h1m-34 1h1m24 0h1m7 0h1m-34 1h1m24 0h2m6 0h1m-34 1h1m28 0h1m3 0h1m-34 1h1m26 0h1m1 0h1m3 0h1m-34 1h1m28 0h1m2 0h2m-34 1h1m27 0h2m3 0h1m-34 1h1m7 0h1m20 0h1m3 0h1m-35 1h1m8 0h1m20 0h2m1 0h1m-35 1h1m9 0h2m20 0h3m-35 1h1m9 0h1m7 0h1m13 0h2m-35 1h1m10 0h1m7 0h1m-21 1h1m11 0h1m-13 1h1m12 0h1m7 0h1m-22 1h1m12 0h1m-14 1h1m12 0h2m7 0h1m-9 1h2m7 0h1m-25 1h1m14 0h2m7 0h1m-25 1h1m2 0h1m5 0h2m5 0h2m7 0h1m-26 1h1m2 0h1m5 0h2m5 0h2m8 0h1m8 0h1m-36 1h1m2 0h1m5 0h2m5 0h3m7 0h1m9 0h1m-36 1h1m1 0h1m5 0h2m5 0h3m2 0h1m5 0h1m6 0h1m2 0h1m-37 1h1m1 0h2m4 0h3m4 0h4m8 0h1m1 0h1m-30 1h4m4 0h3m5 0h4m1 0h1m6 0h1m3 0h1m1 0h1m1 0h1m-36 1h1m2 0h1m3 0h1m1 0h2m5 0h4m1 0h1m5 0h1m2 0h2m1 0h1m-31 1h1m6 0h1m4 0h3m10 0h1m4 0h1m-30 1h4m3 0h4m14 0h1m2 0h1m-10 1h1m6 0h1m-7 2h1m4 0h2m-6 1h1m2 0h2m-4 1h2" stroke="#301e16"/>
 <path d="m28 20h1m3 0h1m3 0h1m3 0h1m3 0h1m3 0h1m3 0h1m3 0h1m3 0h1m23 0h1m3 0h1m3 0h1m3 0h1m-47 2h1m3 0h1m3 0h1m27 0h1m3 0h1m3 0h1m3 0h1m-82 1h2m-19 1h1m15 0h2m14 0h1m3 0h1m3 0h1m3 0h1m3 0h1m3 0h1m3 0h1m31 0h1m1 0h1m1 0h1m1 0h1m1 0h1m1 0h1m-69 2h1m3 0h1m3 0h1m3 0h1m3 0h1m3 0h1m3 0h1m35 0h1m3 0h1m3 0h1m-99 2h1m29 0h1m1 0h1m1 0h1m1 0h1m1 0h1m1 0h1m1 0h1m1 0h1m1 0h1m1 0h1m1 0h1m1 0h1m1 0h1m35 0h1m1 0h1m1 0h1m1 0h1m1 0h1m-69 2h1m1 0h1m1 0h1m1 0h1m1 0h1m1 0h1m1 0h1m1 0h1m1 0h1m1 0h1m1 0h1m1 0h1m1 0h1m35 0h1m1 0h1m1 0h1m1 0h1m1 0h1m-99 2h1m1 0h1m27 0h1m1 0h1m1 0h1m1 0h1m1 0h1m1 0h1m1 0h1m1 0h1m1 0h1m1 0h1m1 0h1m1 0h1m37 0h1m1 0h1m1 0h1m1 0h1m1 0h1m-66 1h1m3 0h1m3 0h1m3 0h1m3 0h1m3 0h1m39 0h1m3 0h1m-98 1h1m1 0h1m1 0h1m1 0h1m1 0h1m1 0h1m1 0h1m17 0h1m1 0h1m1 0h1m1 0h1m1 0h1m1 0h1m1 0h1m1 0h1m1 0h1m1 0h1m1 0h1m1 0h1m21 0h1m15 0h1m1 0h1m1 0h1m1 0h1m1 0h1m-8 1h1m3 0h1m3 0h1m-100 1h1m1 0h1m1 0h1m1 0h1m1 0h1m1 0h1m1 0h1m3 0h1m13 0h1m1 0h1m1 0h1m1 0h1m1 0h1m1 0h1m1 0h1m1 0h1m1 0h1m1 0h1m1 0h1m1 0h1m37 0h1m1 0h1m1 0h1m1 0h1m1 0h1m-98 1h1m3 0h1m3 0h1m3 0h1m15 0h1m3 0h1m3 0h1m3 0h1m3 0h1m3 0h1m21 0h1m19 0h1m1 0h1m1 0h1m1 0h1m1 0h1m-100 1h1m1 0h1m1 0h1m1 0h1m1 0h1m1 0h1m1 0h1m1 0h1m15 0h1m1 0h1m1 0h1m1 0h1m1 0h1m1 0h1m1 0h1m1 0h1m1 0h1m1 0h1m1 0h1m1 0h1m37 0h1m1 0h1m1 0h1m1 0h1m1 0h1m-96 1h1m3 0h1m3 0h1m19 0h1m3 0h1m3 0h1m3 0h1m3 0h1m3 0h1m39 0h1m3 0h1m3 0h1m-100 1h1m1 0h1m1 0h1m1 0h1m1 0h1m1 0h1m1 0h1m1 0h1m15 0h1m1 0h1m1 0h1m1 0h1m1 0h1m1 0h1m1 0h1m1 0h1m1 0h1m1 0h1m1 0h1m39 0h1m1 0h1m1 0h1m1 0h1m1 0h1m-98 1h1m3 0h1m1 0h1m1 0h1m1 0h1m1 0h1m15 0h1m1 0h1m1 0h1m1 0h1m1 0h1m1 0h1m1 0h1m1 0h1m1 0h1m1 0h1m1 0h1m39 0h1m1 0h1m1 0h1m1 0h1m1 0h1m1 0h1m-100 1h1m1 0h1m1 0h1m1 0h1m1 0h1m1 0h1m1 0h1m1 0h1m1 0h1m13 0h1m1 0h1m1 0h1m1 0h1m1 0h1m1 0h1m1 0h1m1 0h1m1 0h1m1 0h1m39 0h1m1 0h1m1 0h1m1 0h1m1 0h1m1 0h1m-96 1h1m3 0h1m3 0h1m19 0h1m1 0h1m1 0h1m1 0h1m1 0h1m1 0h1m1 0h1m1 0h1m1 0h1m1 0h1m37 0h1m1 0h1m1 0h1m1 0h1m1 0h1m1 0h1m1 0h1m-100 1h1m1 0h1m1 0h1m1 0h1m1 0h1m1 0h1m1 0h1m1 0h1m1 0h1m11 0h1m1 0h1m1 0h1m1 0h1m1 0h1m1 0h1m1 0h1m1 0h1m1 0h1m1 0h1m1 0h1m39 0h3m1 0h3m1 0h3m-98 1h1m1 0h1m1 0h1m1 0h1m1 0h1m1 0h1m1 0h1m15 0h1m1 0h1m1 0h1m1 0h1m1 0h1m1 0h1m1 0h1m1 0h1m1 0h1m1 0h1m41 0h1m1 0h1m1 0h1m1 0h1m1 0h1m1 0h1m-100 1h1m1 0h1m1 0h1m1 0h1m1 0h1m1 0h1m1 0h1m3 0h1m11 0h1m1 0h1m1 0h1m1 0h1m1 0h1m1 0h1m1 0h1m1 0h1m1 0h1m1 0h1m1 0h1m39 0h1m1 0h1m1 0h1m1 0h1m1 0h1m1 0h1m-98 1h1m1 0h1m1 0h1m1 0h1m1 0h1m1 0h1m1 0h1m13 0h1m1 0h1m1 0h1m1 0h1m1 0h1m1 0h1m1 0h1m1 0h1m1 0h1m1 0h1m1 0h1m39 0h1m1 0h1m1 0h1m1 0h1m1 0h1m1 0h1m1 0h1m-100 1h3m1 0h3m1 0h3m1 0h1m15 0h3m1 0h3m1 0h3m1 0h3m1 0h3m38 0h2m1 0h3m1 0h3m1 0h3m-98 1h1m1 0h1m1 0h1m1 0h1m1 0h1m1 0h1m3 0h1m11 0h1m1 0h1m1 0h1m1 0h1m1 0h1m1 0h1m1 0h1m1 0h1m1 0h1m1 0h1m39 0h1m1 0h1m1 0h1m1 0h1m1 0h1m1 0h1m1 0h1m1 0h1m-100 1h1m1 0h1m1 0h1m1 0h1m1 0h1m1 0h1m1 0h1m1 0h1m11 0h3m1 0h3m1 0h3m1 0h3m1 0h3m1 0h1m39 0h3m1 0h3m1 0h3m1 0h2m-99 1h1m1 0h1m1 0h1m1 0h1m1 0h1m1 0h1m15 0h1m1 0h1m1 0h1m1 0h1m1 0h1m1 0h1m1 0h1m1 0h1m1 0h1m1 0h1m41 0h1m1 0h1m1 0h1m1 0h1m1 0h1m1 0h1m1 0h1m-100 1h3m1 0h3m1 0h3m2 0h1m12 0h1m1 0h3m1 0h3m1 0h3m1 0h3m1 0h2m42 0h12m-99 1h1m1 0h1m1 0h1m1 0h1m1 0h1m1 0h1m1 0h1m11 0h1m1 0h1m1 0h1m1 0h1m1 0h1m1 0h1m1 0h1m1 0h1m1 0h1m1 0h1m1 0h1m43 0h1m1 0h1m1 0h1m1 0h1m1 0h1m1 0h1m-100 1h1m1 0h3m1 0h3m1 0h1m1 0h1m13 0h3m1 0h3m1 0h3m1 0h3m1 0h3m44 0h11m-99 1h1m1 0h1m1 0h1m1 0h1m1 0h1m15 0h1m1 0h1m1 0h1m1 0h1m1 0h1m1 0h1m1 0h1m1 0h1m1 0h1m1 0h1m1 0h1m3 0h1m41 0h1m1 0h1m1 0h1m1 0h1m1 0h1m-100 1h10m1 0h1m12 0h22m4 0h1m39 0h10m-99 1h1m1 0h1m1 0h1m1 0h1m1 0h1m1 0h1m13 0h1m1 0h1m1 0h1m1 0h1m1 0h1m1 0h1m1 0h1m1 0h1m1 0h1m1 0h1m1 0h1m5 0h1m39 0h3m1 0h3m1 0h1m-100 1h1m1 0h7m1 0h1m13 0h23m5 0h2m37 0h9m-99 1h1m1 0h1m1 0h1m1 0h1m17 0h1m1 0h1m1 0h1m1 0h1m1 0h1m1 0h1m1 0h1m1 0h1m1 0h1m1 0h1m1 0h1m7 0h20m18 0h1m1 0h1m1 0h1m1 0h1m1 0h1m-100 1h9m1 0h1m13 0h22m8 0h10m27 0h9m-99 1h1m1 0h1m1 0h1m1 0h1m15 0h3m1 0h3m1 0h3m1 0h3m1 0h3m1 0h3m11 0h8m26 0h3m1 0h3m1 0h1m-100 1h8m1 0h1m13 0h23m6 0h1m3 0h10m25 0h9m-99 1h1m1 0h1m1 0h1m1 0h1m1 0h1m13 0h1m1 0h1m1 0h1m1 0h1m1 0h1m1 0h1m1 0h1m1 0h3m1 0h3m1 0h1m7 0h3m1 0h6m28 0h1m1 0h3m1 0h3m-100 1h7m2 0h1m13 0h23m30 0h1m1 0h4m8 0h10m-100 1h2m1 0h3m3 0h1m13 0h3m1 0h3m1 0h3m1 0h3m1 0h3m1 0h3m31 0h1m3 0h2m6 0h11m-100 1h7m1 0h1m13 0h23m32 0h3m2 0h6m1 0h11m-99 1h3m1 0h2m15 0h2m1 0h3m1 0h3m1 0h3m1 0h3m1 0h3m34 0h3m8 0h11m-99 1h3m1 0h1m16 0h2m1 0h3m1 0h3m1 0h3m1 0h3m1 0h3m7 0h1m27 0h3m7 0h3m1 0h3m1 0h3m-100 1h6m1 0h1m14 0h23m6 0h1m28 0h4m5 0h11m-100 1h2m1 0h3m1 0h1m15 0h3m1 0h3m1 0h3m1 0h3m1 0h3m1 0h1m7 0h2m35 0h12m-99 1h3m1 0h1m1 0h1m14 0h22m7 0h2m34 0h13m-99 1h1m1 0h1m1 0h1m1 0h1m15 0h1m1 0h1m1 0h1m1 0h1m1 0h1m1 0h1m1 0h1m1 0h1m1 0h1m1 0h1m1 0h1m7 0h2m34 0h1m1 0h3m1 0h3m1 0h3m-100 1h6m1 0h2m14 0h21m7 0h2m35 0h12m-99 1h1m1 0h1m1 0h1m19 0h1m1 0h1m1 0h1m1 0h1m1 0h1m1 0h3m1 0h3m9 0h2m36 0h1m1 0h3m1 0h3m1 0h1m-100 1h7m1 0h2m16 0h14m11 0h2m36 0h11m-99 1h1m1 0h1m1 0h1m3 0h1m19 0h1m1 0h1m1 0h1m1 0h1m15 0h2m38 0h1m1 0h1m1 0h1m1 0h1m1 0h1m-100 1h1m1 0h3m1 0h1m3 0h1m40 0h2m37 0h10m-99 1h1m1 0h1m1 0h1m1 0h1m1 0h1m1 0h1m39 0h2m38 0h1m1 0h1m1 0h1m1 0h1m1 0h1m-100 1h3m1 0h3m3 0h1m40 0h2m38 0h9m-99 1h1m1 0h1m1 0h1m1 0h1m3 0h1m38 0h3m40 0h1m1 0h1m1 0h1m1 0h1m-100 1h1m1 0h1m1 0h1m1 0h1m1 0h1m2 0h2m37 0h3m39 0h1m1 0h3m1 0h2m-99 1h1m1 0h1m1 0h1m1 0h1m1 0h1m3 0h1m36 0h2m41 0h1m1 0h1m1 0h1m1 0h1m-100 1h3m1 0h3m1 0h3m2 0h2m35 0h1m41 0h3m1 0h3m-98 1h1m1 0h1m1 0h1m1 0h1m1 0h1m1 0h1m3 0h1m33 0h2m42 0h1m1 0h1m1 0h1m1 0h1m-100 1h1m1 0h1m1 0h1m1 0h1m1 0h1m1 0h1m1 0h1m3 0h1m32 0h2m41 0h1m1 0h1m1 0h1m1 0h1m-98 1h1m1 0h1m1 0h1m1 0h1m1 0h1m1 0h1m1 0h1m34 0h2m43 0h1m1 0h1m1 0h1m1 0h1m-100 1h1m1 0h1m1 0h1m1 0h1m1 0h1m1 0h1m1 0h1m1 0h1m5 0h1m26 0h3m42 0h1m1 0h1m1 0h1m1 0h1m-96 1h1m3 0h1m3 0h1m3 0h1m30 0h3m42 0h1m1 0h1m1 0h1m1 0h1m1 0h1m-100 1h1m1 0h1m1 0h1m1 0h1m1 0h1m1 0h1m1 0h1m1 0h1m1 0h1m1 0h1m3 0h1m22 0h3m42 0h1m1 0h1m1 0h1m1 0h1m1 0h1m-98 1h1m3 0h1m3 0h1m3 0h1m3 0h1m3 0h1m22 0h4m43 0h1m1 0h1m1 0h1m1 0h1m1 0h1m-100 1h1m1 0h1m1 0h1m1 0h1m1 0h1m1 0h1m1 0h1m1 0h1m1 0h1m1 0h1m1 0h1m1 0h1m1 0h1m15 0h1m2 0h4m45 0h1m1 0h1m1 0h1m1 0h1m-56 1h3m49 0h1m3 0h1m-100 1h1m1 0h1m1 0h1m1 0h1m1 0h1m1 0h1m1 0h1m1 0h1m1 0h1m1 0h1m1 0h1m1 0h1m1 0h1m1 0h1m1 0h1m1 0h1m1 0h1m1 0h1m1 0h1m1 0h1m3 0h3m43 0h1m5 0h1m1 0h1m1 0h1m-74 1h1m3 0h1m3 0h1m3 0h1m3 0h3m53 0h1m-98 1h1m1 0h1m1 0h1m1 0h1m1 0h1m1 0h1m1 0h1m1 0h1m1 0h1m1 0h1m1 0h1m1 0h1m1 0h1m1 0h1m1 0h1m1 0h1m1 0h1m1 0h1m1 0h1m1 0h1m2 0h2m43 0h1m9 0h1m1 0h1m-97 2h1m3 0h1m3 0h1m3 0h1m3 0h1m3 0h1m3 0h1m3 0h1m3 0h1m61 0h1m1 0h1m-99 2h1m3 0h1m3 0h1m3 0h1m3 0h1m3 0h1m1 0h1m1 0h1m1 0h1m1 0h1m1 0h1m1 0h1m1 0h1m1 0h1m7 0h1m27 0h1m1 0h1m1 0h1m19 0h1m1 0h1" stroke="#ac3232"/>
 <path d="m67 20h8m-12 1h16m-17 1h8m2 0h10m-21 1h7m4 0h3m4 0h4m-23 1h3m1 0h3m4 0h3m6 0h4m-24 1h2m2 0h2m5 0h2m9 0h3m-26 1h2m2 0h3m4 0h2m12 0h2m-29 1h4m2 0h2m5 0h1m14 0h1m-29 1h3m3 0h1m22 0h1m-30 1h3m20 0h1m-24 1h2m11 0h1m8 0h2m6 0h1m-31 1h2m10 0h2m8 0h2m2 0h1m-28 1h3m10 0h1m9 0h1m1 0h1m2 0h1m-29 1h3m9 0h2m9 0h1m4 0h1m-29 1h3m4 0h1m15 0h1m2 0h1m2 0h1m-30 1h3m3 0h2m14 0h2m3 0h1m1 0h1m-30 1h3m3 0h2m14 0h2m3 0h1m1 0h1m-30 1h3m3 0h2m15 0h1m5 0h3m-32 1h2m3 0h2m1 0h1m14 0h1m5 0h3m-33 1h2m4 0h2m1 0h1m4 0h1m16 0h1m-33 1h2m1 0h1m3 0h2m7 0h1m-17 1h2m1 0h1m3 0h2m7 0h1m-18 1h2m1 0h1m4 0h2m7 0h1m-19 1h3m1 0h1m4 0h2m8 0h1m-20 1h2m1 0h2m4 0h3m7 0h1m-18 1h2m4 0h1m1 0h2m7 0h2m-19 1h1m5 0h1m1 0h2m8 0h1m-20 1h2m5 0h1m2 0h2m8 0h1m-21 1h1m6 0h1m3 0h1m8 0h1m-10 1h2m8 0h1m-21 1h1m9 0h2m9 0h1m-25 1h1m2 0h1m10 0h1m9 0h1m-24 1h1m1 0h1m6 0h1m3 0h1m10 0h1m-25 1h1m9 0h1m13 0h2m-23 1h1m6 0h1m3 0h1m10 0h2m-16 1h1m2 0h2m10 0h1m-23 1h4m3 0h4m7 0h1m3 0h2m-20 1h1m18 0h2m-1 1h2m-6 1h1m4 0h2" stroke="#462a1d"/>
 <path d="m70 22h2m-4 1h4m3 0h4m-16 1h1m3 0h4m3 0h6m-18 1h2m2 0h5m2 0h9m-21 1h2m3 0h4m2 0h11m-22 1h2m2 0h5m1 0h13m-24 1h3m1 0h12m2 0h7m-25 1h15m2 0h3m1 0h4m-26 1h11m1 0h4m2 0h2m2 0h5m-27 1h10m5 0h1m2 0h2m2 0h2m1 0h3m-28 1h10m8 0h2m3 0h2m1 0h2m-28 1h9m9 0h2m3 0h2m1 0h2m-28 1h4m1 0h4m10 0h1m4 0h1m2 0h1m-28 1h3m2 0h3m19 0h1m-28 1h3m2 0h3m19 0h1m-28 1h3m2 0h4m-10 1h3m4 0h3m-11 1h4m4 0h3m-12 1h1m1 0h3m4 0h3m-12 1h1m1 0h3m4 0h3m-13 1h1m1 0h4m4 0h4m-14 1h1m1 0h3m6 0h3m-15 1h1m2 0h3m6 0h3m-16 1h1m2 0h3m2 0h1m5 0h2m-16 1h1m1 0h4m2 0h1m5 0h3m-18 1h1m2 0h4m2 0h2m5 0h3m-19 1h1m1 0h2m1 0h2m3 0h2m5 0h3m-20 1h1m1 0h1m1 0h2m4 0h2m5 0h3m-20 1h1m3 0h2m5 0h1m6 0h3m-21 1h1m3 0h2m5 0h2m5 0h4m-18 1h2m6 0h1m7 0h3m-19 1h3m5 0h2m6 0h3m-18 1h2m5 0h2m7 0h3m-20 1h3m15 0h2m10 0h1m-12 1h2m9 0h1m-12 1h2m8 0h2m-11 1h2m6 0h2m-9 1h2m-2 1h4m-3 1h2" stroke="#613927"/>
 <path d="m83 26h1m0 1h1m-9 1h2m7 0h1m-11 1h2m8 0h2m-12 1h2m9 0h1m-12 1h2m10 0h1m-12 1h1m10 0h1m-1 1h1m-1 1h1m-1 1h1m-20 3h1m-1 1h1m-1 1h2m-2 1h2m-1 1h1m-10 1h1m8 0h2m-11 1h1m8 0h2m-19 1h1m6 0h1m9 0h2m-19 1h1m6 0h1m10 0h2m-21 1h1m7 0h1m11 0h2m-22 1h1m4 0h1m2 0h1m1 0h1m10 0h1m-22 1h1m3 0h1m2 0h1m2 0h1m10 0h2m-23 1h1m3 0h1m2 0h1m2 0h2m10 0h2m-20 1h1m2 0h1m2 0h2m11 0h1m-20 1h1m2 0h1m3 0h2m11 0h1m-21 1h1m7 0h1m11 0h1m9 0h2m-31 1h1m6 0h1m12 0h1m9 0h1m-23 1h2m10 0h2m9 0h1m-11 1h1m9 0h1m-11 1h2m-1 1h2m-1 1h2" stroke="#8f563b"/>
 <path d="m71 32h3m-3 1h2m1 0h2m-4 1h2m1 0h1m-8 1h3m2 0h2m1 0h1m-8 1h1m1 0h2m1 0h3m-8 1h2m1 0h2m-4 1h2m1 0h1m-3 1h3m8 2h1m1 19h2m3 1h1m-1 1h1m-2 1h1m-2 1h1m-2 1h2m-34 2h1m26 0h1m5 0h1m-34 1h1m27 0h5m-39 1h2m4 0h1m29 0h2m-38 1h2m4 0h1m-10 1h1m2 0h2m4 0h1m-7 1h2m4 0h1m-8 1h3m-3 1h3m-6 1h1m2 0h3m-4 1h4m-4 1h3m-3 1h3m4 0h1m-8 1h2m-2 1h2m-4 1h1m1 0h2m-4 1h1m1 0h1m5 0h1m-9 1h1m5 5h1m-2 1h2m-2 1h1m-2 1h2m-3 1h2m1 0h1m-5 1h2m2 0h1m-5 1h1m2 0h3m-7 1h1m2 0h4m-8 1h1m2 0h6m-12 1h3m4 0h5m-13 1h3m6 0h5m-15 1h2m9 0h5" stroke="#4f1616"/>
 <path d="m73 33h1m1 2h1m-6 1h1m1 2h1m9 4h1m-36 9h2m-2 1h2m-2 1h2m-2 1h2m-2 1h2m-2 1h3m-2 1h3m1 0h2m18 0h1m-25 1h4m2 0h1m13 0h6m14 0h2m-42 1h5m20 0h1m13 0h3m-43 1h7m10 0h11m11 0h4m-43 1h10m8 0h10m9 0h5m-42 1h5m1 0h3m16 0h4m7 0h6m-41 1h5m3 0h1m18 0h2m4 0h7m-39 1h11m17 0h1m4 0h5m-40 1h1m2 0h7m21 0h3m2 0h3m-39 1h1m32 0h2m-36 1h3m2 0h3m28 0h5m-41 1h3m3 0h2m33 0h1m-42 1h2m4 0h2m32 0h1m-41 1h2m5 0h1m29 0h2m-39 1h2m5 0h1m-9 1h3m5 0h1m-9 1h2m6 0h1m-9 1h2m6 0h1m-9 1h2m6 0h1m-10 1h2m7 0h1m-10 1h2m7 0h1m-10 1h2m4 0h1m-7 1h2m4 0h1m-7 1h2m3 0h1m-5 1h1m3 0h1m-5 1h1m3 0h1m-5 1h1m2 0h2m1 0h1m-7 1h1m1 0h2m2 0h1m-5 1h2m2 0h1m-6 1h2m2 0h1m-6 1h2m3 0h1m-7 1h2m3 0h1m-6 1h1m3 0h1m-1 1h1m-2 1h1m-2 1h1m-2 1h1m-2 1h2m-3 1h2m-5 1h4m-5 1h2m5 0h2m-9 1h1m7 0h2m-2 1h3" stroke="#722222"/>
 <path d="m81 37h1m-5 2h1m4 10h1m-14 19h1m-6 1h2m4 0h1m-7 1h4m-4 1h5m-6 1h9m-9 1h10m-11 1h11m-11 1h12m-12 1h12m-12 1h11m-11 1h11m7 0h4m-21 1h10m7 0h5m-21 1h10m5 0h7m-22 1h10m5 0h7m-22 1h10m4 0h8m-23 1h11m3 0h9m-23 1h11m3 0h8m-22 1h10m4 0h7m-26 1h1m3 0h11m4 0h6m-25 1h1m3 0h11m4 0h5m-25 1h2m3 0h11m4 0h4m-25 1h2m5 0h10m4 0h4m-25 1h2m6 0h10m3 0h5m-18 1h11m2 0h5m-18 1h11m2 0h6m-19 1h11m3 0h6m-21 1h12m4 0h3m-19 1h12m-12 1h12m-12 1h9m8 0h1m-18 1h6m-6 1h2" stroke="#663931"/>
 <path d="m75 38h2m-2 1h1m-2 1h1m-2 1h1m-1 1h1m0 2h1m10 2h1m-2 1h1m-7 3h1m0 1h1m2 0h1m-3 1h1m0 1h1" stroke="#d9a066"/>
 <path d="m81 38h1m-6 1h1m-2 1h3m-4 1h4m5 0h1m-10 1h5m4 0h1m-10 1h7m2 0h1m-9 1h10m-10 1h10m-9 1h7m-7 1h6m-5 1h5m-4 1h3m-2 1h2" stroke="#fbe6d3"/>
 <path d="m78 40h1m0 2h1m2 1h1m1 0h1m0 1h1m-1 1h2m-4 1h2m-3 1h2m-3 3h1m-2 1h2m-1 1h1" stroke="#eec39a"/>
 <path d="m80 41h1m1 34h6m-5 1h4m1 1h1m-1 1h1m-1 1h1m-1 7h1m-1 1h1m-1 1h1" stroke="#9badb7"/>
 <path d="m81 41h1m-1 1h1m-15 21h5m0 1h1m0 1h2m-16 1h1m15 0h1m-18 1h1m16 0h1m-19 1h1m18 0h1m-20 1h1m19 0h1m-21 1h1m20 0h1m-22 1h1m21 0h2m-24 1h1m23 0h4m-29 1h1m-1 1h1m-1 1h1m-1 1h1m-1 1h1m-2 1h1m-1 1h1m-1 1h1m32 0h2m-35 1h1m32 0h3m-36 1h1m32 0h3m-37 1h1m34 0h2m-37 1h1m34 0h2m-37 1h1m35 0h1m-38 1h1m-2 1h1" stroke="#fff"/>
 <path d="m82 48h2m-3 1h1m0 1h1" stroke="#d98b66"/>
 <path d="m70 64h2m1 0h1m-10 1h5m3 0h1m-15 1h1m4 0h1m5 0h2m2 0h2m-19 1h2m1 0h1m3 0h1m7 0h1m2 0h1m-19 1h1m1 0h1m3 0h1m8 0h2m2 0h1m-20 1h1m1 0h1m14 0h1m2 0h1m-21 1h1m1 0h1m2 0h1m11 0h2m1 0h2m1 0h1m-24 1h1m1 0h1m2 0h1m12 0h1m2 0h2m2 0h1m4 0h1m-31 1h1m1 0h1m2 0h1m12 0h2m2 0h3m-24 1h2m1 0h1m13 0h3m3 0h5m-30 1h1m1 0h2m16 0h5m-25 1h1m1 0h2m16 0h3m2 0h1m-26 1h1m1 0h1m17 0h1m1 0h2m1 0h1m-26 1h1m1 0h1m16 0h1m1 0h1m-21 1h2m-2 1h1m1 0h1m16 0h1m-22 1h1m1 0h1m1 0h1m15 0h1m-21 1h1m1 0h1m1 0h1m15 0h1m-21 1h1m2 0h2m15 0h1m-22 1h1m1 0h1m1 0h2m15 0h1m-22 1h1m1 0h1m1 0h1m16 0h1m-22 1h1m1 0h1m1 0h1m16 0h1m-21 1h2m18 0h1m11 0h1m-34 1h2m1 0h1m17 0h1m10 0h2m-32 1h1m18 0h1m8 0h4m-27 1h1m13 0h1m7 0h5m-28 1h2m13 0h1m8 0h4m-33 1h1m4 0h2m14 0h1m8 0h3m-33 1h1m3 0h3m14 0h1m8 0h1m-31 1h2m2 0h3m14 0h1m-22 1h2m4 0h1m14 0h1m-21 1h3m2 0h1m14 0h1m-21 1h3m2 0h1m14 0h1m-19 1h2m1 0h1m-4 1h2m1 0h1m-3 1h1" stroke="#391f1a"/>
 <path d="m64 66h5m-5 1h7m-8 1h6m1 0h1m-9 1h2m2 0h4m1 0h2m-11 1h2m4 0h5m-11 1h2m5 0h5m-12 1h1m9 0h2m-13 1h2m10 0h1m-14 1h2m11 0h2m-15 1h2m12 0h1m3 0h2m-20 1h2m12 0h1m1 0h1m2 0h1m-20 1h2m11 0h1m1 0h1m2 0h4m-22 1h2m11 0h3m1 0h3m4 0h3m-27 1h3m10 0h2m2 0h3m5 0h2m-27 1h4m13 0h2m7 0h1m-27 1h4m12 0h3m7 0h1m-28 1h1m1 0h3m12 0h2m8 0h1m-28 1h1m1 0h2m13 0h1m9 0h1m-29 1h2m1 0h2m13 0h1m8 0h2m-29 1h2m1 0h2m10 0h1m2 0h1m7 0h3m-30 1h1m1 0h1m1 0h1m11 0h1m2 0h1m6 0h3m-29 1h1m1 0h1m1 0h1m11 0h1m2 0h1m5 0h3m-29 1h1m2 0h1m1 0h1m11 0h1m2 0h1m4 0h2m-30 1h3m2 0h2m2 0h1m10 0h1m2 0h1m4 0h1m-29 1h3m2 0h1m3 0h2m12 0h1m5 0h1m-30 1h1m1 0h4m3 0h2m18 0h2m-29 1h3m4 0h2m19 0h1m-28 1h2m4 0h2m13 0h1m-22 1h4m2 0h1m14 0h2m-21 1h2m2 0h1m14 0h3m-22 1h2m2 0h1m-8 1h2m2 0h1m2 0h1m-7 1h1m2 0h1m2 0h1m-7 1h2m1 0h2m1 0h1" stroke="#4f2b25"/>
 <path d="m87 93h1" stroke="#350303"/>
 <g transform="matrix(.052809 0 0 .029872 60.905 16.711)">
  <path d="m129.28 2.1776q0 2.0898-1.4453 2.7734 2.0312 0.58594 2.0312 3.418v5.332q0 1.7578-0.9961 2.9883-0.99609 1.25-2.7148 1.25h-10.742v-24.961h3.5547v0.019531h6.6016q1.7578 0 2.7344 1.2891 0.97656 1.2891 0.97656 3.0859zm-3.4766-4.6094q0-1.4648-1.6797-1.4648h-5.1562v7.5h5.5859q0.60547 0 0.91797-0.46875 0.33203-0.46875 0.33203-1.0352zm-0.89844 17.402q1.4844 0 1.4844-1.543v-5.2539q0-1.4648-1.6797-1.4648h-5.7422v8.2617z"/>
  <path d="m141.39 16.787q-1.1328 1.1328-2.2852 1.1328h-3.125q-1.6992 0-2.9297-1.1523-1.2305-1.1523-1.2305-2.8711v-15h3.3398v14.355q0 0.74219 0.41015 1.2695 0.42969 0.50781 1.2305 0.50781h2.8516q1.1719 0.01953 1.4844-1.4258 0.0781-0.39062 0.0781-0.74219v-13.77h3.3398v19.258q0 0.64453 0.0195 1.4844t-0.13672 3.7109q-0.15625 2.8711-3.3008 2.8711h-4.4922q-1.3867 0-2.4805-0.89844-1.1133-0.89844-1.1133-2.2461v-1.0547h2.9688q0 1.0352 0.85938 1.5039 0.27343 0.15625 0.58593 0.13672h1.9336q1.2695-0.01953 1.8164-0.83984 0.19532-0.27344 0.17578-0.66406z"/>
  <g id="g1024">
   <path d="m162.78-3.9161q-1.4844 0-1.4844 1.543v4.8047q0 1.4648 1.4844 1.4648h5.1758q1.7578 0 2.832 1.25 1.0938 1.25 1.0938 2.9883v5.4687q0 1.7969-1.1719 3.0859-1.1719 1.2695-2.9492 1.2695h-6.0547q-1.9141 0-2.9883-1.2305-1.0938-1.2305-1.0938-3.1445h3.3594q-0.0391 0.68359 0.33203 0.97656 0.39062 0.27344 1.0156 0.27344h4.5898q1.4844 0 1.4844-1.4648v-4.8047q0-1.5234-1.4844-1.5234h-4.9805q-1.7773 0-2.9492-1.2891-1.1719-1.2891-1.1719-3.0859v-5.4688q0-1.7578 1.0938-3.0078t2.832-1.25h6.0547q1.7969 0 2.8516 1.1914 1.0352 1.1914 1.0352 3.0469h-3.3594q0.0391-1.0938-1.3477-1.0938z"/>
   <path d="m183.87 3.4472q0-1.6406-1.582-1.6406h-3.5547q-0.58593 0-0.91796 0.37109-0.3125 0.35156-0.33204 0.91797h-3.3594q0.0391-1.7773 1.1523-3.0078 1.1133-1.2305 2.832-1.2305h5.2148q1.6797 0 2.7539 1.2109 1.0742 1.2109 1.0742 2.9492v14.922h-3.2617v-0.76172q-1.0547 0.82031-2.0703 0.82031h-3.2031q-1.7774 0-3.2227-1.1523-1.4453-1.1523-1.4453-2.832v-3.7109q0-1.7188 1.4453-2.8711 1.4453-1.1523 3.2227-1.1523h3.7891q0.78125 0 1.4648 0.42969zm-0.0586 9.9219v-2.4219q0-0.74219-0.42969-1.25-0.41015-0.52734-1.2109-0.52734h-3.3203q-0.82031 0-1.1914 0.52734-0.3711 0.50781-0.3711 1.25v2.4219q0 0.74219 0.3711 1.2695 0.37109 0.50781 1.1914 0.50781h3.3203q0.80079 0 1.2109-0.50781 0.42969-0.52734 0.42969-1.2695z"/>
   <path d="m192.07 0.029182q1.1328-1.1328 2.2852-1.1328h3.3203q1.6992 0 2.9297 1.1523 1.2305 1.1523 1.2305 2.8711v15h-3.3398v-14.355q0-0.74219-0.42969-1.25-0.41015-0.52734-1.2109-0.52734h-2.8516q-1.1523-0.019531-1.4648 1.4258-0.0781 0.39062-0.0977 0.74219v13.965h-3.3398l-0.0195-19.023h2.9883z"/>
  </g>
  <path d="m211-1.1232q1.1719 0 2.1484 0.58594v-6.3867h3.3594v24.766h-3.0664v-0.91797q-1.2695 0.91797-2.832 0.91797h-1.3672q-2.5 0-3.9648-1.6211-1.4844-1.6211-1.4844-4.1406v-7.4219q0-4.1016 2.7539-5.3516 0.95704-0.42969 2.3047-0.42969zm2.1484 14.648v-10.41q0-0.56641-0.52735-0.95703-0.52734-0.39062-1.0742-0.39062h-2.0703q-2.0117 0-2.2656 1.9141-0.0781 0.58594-0.0781 1.2305v7.1094q0.0195 1.5234 0.33203 2.0117 0.60547 0.9375 2.0117 0.9375h1.6797q1.0742 0 1.7773-0.85938 0.21485-0.27344 0.21485-0.58594z"/>
  <path d="m230.22 13.838q0.0195 1.6797-1.3867 2.832-1.4062 1.1719-3.1641 1.1719h-2.5195q-1.7774 0-3.2227-1.1523-1.4453-1.1523-1.4453-2.8516v-10.977q0-1.7188 1.4453-2.8711 1.4453-1.1523 3.2227-1.1523h2.5195q1.7188 0 3.1445 1.1523 1.4062 1.1523 1.4062 2.8711zm-3.3398-0.64453v-9.6875q0-0.74219-0.42969-1.25-0.41016-0.52734-1.2109-0.52734h-1.8555q-0.82031 0-1.1914 0.52734-0.3711 0.50781-0.3711 1.25v9.6875q0 0.74219 0.3711 1.2695 0.37109 0.50781 1.1914 0.50781h1.8555q0.80078 0 1.2109-0.50781 0.42969-0.52734 0.42969-1.2695z"/>
  <use transform="translate(84)" width="100%" height="100%" xlink:href="#g1024"/>
 </g>
</svg>
