<svg width="1280" height="720" version="1.1" viewBox="-12 15 370 165" xmlns="http://www.w3.org/2000/svg" xmlns:cc="http://creativecommons.org/ns#" xmlns:dc="http://purl.org/dc/elements/1.1/" xmlns:rdf="http://www.w3.org/1999/02/22-rdf-syntax-ns#" xmlns:xlink="http://www.w3.org/1999/xlink">
	<defs>
		<filter id="c" x="-.032074" y="-.019173" width="1.0641" height="1.0383" color-interpolation-filters="sRGB">
			<feGaussianBlur stdDeviation="0.35152068"/>
		</filter>
		<linearGradient id="a" x1="-240.58" x2="-235.57" y1="179.63" y2="38.45" gradientTransform="scale(.98036 1.02)" gradientUnits="userSpaceOnUse">
			<stop stop-color="#1c4cfa" offset="0"/>
			<stop stop-color="#3096e5" offset="1"/>
		</linearGradient>
	</defs>
	<style>
		svg {
			width: 100vw;
			height: 100vh;
			object-fit: cover;
		}
		svg>g{
			animation-duration: 0.5s;
		  animation-name: easeOutElastic;
			animation-timing-function: linear;
			animation-iteration-count: 1;
			animation-fill-mode:forwards;
			opacity: 0;
		}
		@keyframes easeOutElastic {
			0% { transform: translateY(200px); opacity: 1;}
			16% { transform: translateY(64px); }
			28% { transform: translateY(-28px); }
			44% { transform: translateY(8px); }
			59% { transform: translateY(-4px); }
			73% { transform: translateY(0px); }
			88% { transform: translateY(-2px); }
			100% { transform: translateY(0px); opacity: 1; }
		}
	</style>
	<metadata>
		<rdf:RDF>
			<cc:Work rdf:about="">
				<dc:format>image/svg+xml</dc:format>
				<dc:type rdf:resource="http://purl.org/dc/dcmitype/StillImage"/>
			</cc:Work>
		</rdf:RDF>
	</metadata>
	<g style="animation-delay:   0s;" ><use transform="matrix(.31677 0 0 .31677 128.72 42.827)" xlink:href="#bigEne"/></g>
	<g style="animation-delay: 0.1s;" ><use transform="matrix(.38964 0 0 .38964 2.1888 7.5017)" xlink:href="#bigEne"/></g>
	<g style="animation-delay: 0.2s;" ><use transform="matrix(.1977 0 0 .1977 229.72 131.61)" xlink:href="#bigEne"/></g>
	<g style="animation-delay: 0.3s;" ><use transform="matrix(.49566 0 0 .49566 197.93 0)" xlink:href="#bigEne"/></g>
	<g style="animation-delay: 0.4s;" ><use transform="matrix(.33519 0 0 .33519 -6.7715 125)" xlink:href="#bigEne"/></g>
	<g style="animation-delay: 0.5s;" ><use transform="matrix(.20728 0 0 .20728 82.394 60.706)" xlink:href="#bigEne"/></g>
	<g style="animation-delay: 0.6s;" ><use transform="matrix(.39537 0 0 .39537 71.933 88.952)" xlink:href="#bigEne"/></g>
	<g style="animation-delay: 0.7s;" ><use transform="matrix(.30664 0 0 .30664 -18.589 65.745)" xlink:href="#bigEne"/></g>
	<g style="animation-delay: 0.8s;" ><use transform="matrix(.34379 0 0 .34379 236.01 118.93)" xlink:href="#bigEne"/></g>
	<g style="animation-delay: 0.9s;" ><use transform="matrix(.43065 0 0 .43065 203.29 55.535)" xlink:href="#bigEne"/></g>
	<g style="animation-delay:   1s;" ><use transform="matrix(.32991 0 0 .32991 153.11 133.83)" xlink:href="#bigEne"/></g>
	<g style="animation-delay: 1.1s;" ><use transform="matrix(.22042 0 0 .22042 181.78 91.512)" xlink:href="#bigEne"/></g>
	<g style="animation-delay: 1.2s;" ><use transform="matrix(.61021 0 0 .61021 44.701 0)" xlink:href="#bigEne"/></g>
	<g style="animation-delay: 1.3s;" ><use transform="matrix(.18437 0 0 .18437 47.074 98.48)" xlink:href="#bigEne"/></g>
	<g style="animation-delay: 1.4s;" ><use transform="matrix(.2029 0 0 .2029 114.51 150)" xlink:href="#bigEne"/></g>
	<g style="animation-delay:   2s;" >
		<g id="bigEne" transform="translate(286.02 -23)">
	<path d="m-230.94 39.22 41.85 111.18-12.161 18.308c57.92 8.5564 113.15 3.7121 169.72 0.80181l-16.571-22.451 0.57801-8.5283 17.765-2.3624 11.906-9.1659 10.3 49.704-6.619 35.17c22.842-22.463 30.477-49.994 36.479-78.07 9.3034-97.38-40.063-118.09-88.053-83.619-1e-6 1e-6 -15.686-7.0685-24.05-10.837-11.038-27.114-69.9-9.169-91.315-1.0222-16.793-1.2164-34.476-9.7561-49.826 0.8903z" fill="#2e5ae1"/>
	<path d="m-230.94 39.22c-23.019 14.312-27.798 40.378-28.348 69.17 3.2843 60.5 18.769 76.441 33.262 96.006l-0.75595-42.333 10.565-35.981 14.967 11.76 12.161 12.562 27.13-33.508 19.844-30.238-6.8036 42.144 0.75596 15.875 21.167-18.899 18.899-33.073c-15.392-30.237-62.072-40.023-122.84-53.484z" fill="url(#a)"/>
	<path d="m-40.161 85.719c26.876 7.9333 40.321 48.459-5.5089 54.146zm-160.96 3.785c-19.453 12.701-27.181 27.357-0.13363 47.808z" fill="#51504e"/>
	<path d="m-90.559 58.469c-5.4405 9.2194-45.607 88.357-55.956 84.336-4.706-1.8282-3.2473-20.85 10.444-71.457-16.032 24.632-22.132 52.102-50.672 73.159 12.932 15.277 24.709 33.827 43.41 32.759l69.537 0.31972 26.266-39.053c-15.888-25.529-34.64-48.911-43.029-80.065z" fill="#e5e4e2"/>
	<g id="b">
		<path d="m-63.947 133.34c-3.2151-0.58469-8.6675 2.4434-10.475 5.8633 9.41e-4 5.9e-4 2.473 8.8077 2.6562 12.947-1.2294-1.058-7.9386 1.2186-7.3086 8.4785 0.58334 4.8721 0.55023 14.421 0.58398 19.293 9.2927-3.0315 19.741-12.334 25.553-19.725 2.1362-8.4992-1.4788-21.74-11.01-26.857z" fill="#005bff" xlink:href="#path1452"/>
		<path d="m-66.873 136.54c2.1256-0.49156 0.82096-0.48448 2.6141-0.47903 3.5634 2.738 4.2471 2.2832 3.3277 2.2712-1.1645-0.0152-3.6855-0.67757-5.9418-1.7922zm-6.6723 3.9776c3.7451 7.7993 7.5696 15.639 9.4594 27.055 4.3314-2.5795 8.5395-5.2312 10.422-9.6896 0.09556-4.0846-0.99926-9.9469-3.8827-14.946-1.3579 3.2336-9.7003-0.37314-15.999-2.4195zm2.2215 13.92c-1.9351 0.84452-4.8456 2.8847-6.9398 3.8712 0.61149 2.6359 1.843 11.991 1.5399 18.139 2.7719-0.92055 6.5692-3.7036 9.0887-6.9996-0.0113-5.3844-1.9932-10.489-3.6888-15.01z" fill="#2ed8e1" filter="url(#c)"/>
	</g>
	<use transform="matrix(-1 0 0 1 -234.71 .23726)" xlink:href="#b"/>
	<path d="m-139.62 178.65c-1.7652-3.6479-2.1624-7.777-2.6746-11.75-0.44235-5.126-0.80997-10.422 0.57008-15.44 0.40689-1.3298 1.2973-3.1962 2.9698-2.8538h44.885c1.3031 3.4321 1.4449 7.1884 1.722 10.82 0.17577 5.2214 0.20092 10.678-1.8654 15.573-1.0166 2.6778-3.832 3.774-6.1731 5.0127-9.9661 4.6436-21.562 4.0715-31.936 1.1739-2.5426-0.70868-5.0441-1.5624-7.4975-2.5355z" fill="#ce746b" />
	<path d="m-126.29 183.46c-8.3164-0.65771-15.52-8.5426-16.626-15.744-0.21365-1.7193 1.7677-3.5302 3.576-5.7976 2.0626-2.5863 6.3225-5.2354 10.334-6.4268 6.0452-1.7953 15.134-2.0206 21.375-0.52996 6.3704 1.5215 10.935 4.4694 13.312 8.5967 0.86758 1.5066 2.6837 3.3814 2.1211 6.0502-2.7794 6.1604-4.4035 12.111-9.5721 13.036-2.9044 0.49731-21.08 1.1687-24.52 0.81514z" fill="#fa8d79" />
	<path d="m-14.179 211.88c-0.36962-0.72289-0.11359-2.6028 0.82642-6.068 1.2418-4.5776 2.4563-10.485 3.1218-15.183 0.66038-4.6625 0.656-16.362-8e-3 -21.564-1.5036-11.778-4.1174-23.653-7.76-35.256-0.69697-2.22-1.046-2.9764-1.373-2.976-0.24116 2.6e-4 -1.4669 0.99984-2.7238 2.2212-6.1523 5.978-10.872 7.9562-20.697 8.675-3.144 0.23001-4.4999 0.42686-4.5919 0.66668-0.18518 0.48257 1.5821 4.9548 3.3919 8.5837 3.1622 6.3405 6.863 10.951 11.289 14.063 2.5783 1.813 2.9816 2.2723 3.1593 3.5972 0.12854 0.95836 0.048 1.1672-0.76251 1.9777-1.076 1.076-3.3194 1.8437-7.2313 2.4744-3.4421 0.555-14.203 0.60814-20.373 0.10061l-4.4979-0.36996-3.1011 2.2658c-3.6142 2.6406-6.8684 4.6499-9.3927 5.7995-2.1397 0.9744-6.9994 2.7198-8.2153 2.9505-0.97439 0.18492-1.1537 0.0396-2.5323-2.0518-1.3394-2.0319-1.3784-2.0373-4.2905-0.59124-4.5822 2.2753-11.263 4.1832-17.183 4.9071-8.0991 0.99037-20.234 0.36849-28.399-1.4554-4.7851-1.0689-9.0182-2.6338-11.478-4.2431-0.70138-0.45895-0.73311-0.45531-1.3867 0.15873-0.3679 0.34563-0.9197 1.1464-1.2262 1.7796-0.77019 1.591-1.204 1.7665-3.2131 1.3001-4.1769-0.96973-10.941-4.511-17.004-8.9025l-2.6356-1.909-3.9739 0.36588c-8.1519 0.75054-17.727 0.35509-23.63-0.97591-3.2071-0.72319-4.8182-1.9523-4.8182-3.6759 0-1.464 0.47491-2.0478 3.0019-3.6899 3.3278-2.1625 6.0923-5.2873 8.593-9.7131 0.46224-0.81808 0.84044-1.6811 0.84044-1.9179s-0.9384-1.8296-2.0853-3.5397c-1.1469-1.7101-2.7251-4.2998-3.507-5.755l-1.4216-2.6458-4.1399-2.1384c-4.7094-2.4326-6.9155-3.9819-9.7416-6.8409-1.0878-1.1005-2.1891-2.0008-2.4474-2.0008s-0.46964 0.0609-0.46964 0.13527c0 0.0744-0.42571 1.5329-0.94602 3.2411-2.6529 8.7097-5.6078 22.071-6.8308 30.887-2.0814 15.004-1.6944 21.99 2.116 38.202 1.5916 6.7718 1.7168 8.3044 0.69047 8.45-0.95233 0.13509-2.8761-1.1659-5.5745-3.7697-6.4942-6.2668-14.425-17.554-19.582-27.87-7.6891-15.381-13.608-42.097-14.522-65.548-0.11378-2.9199-0.25034-4.353-0.35297-3.7042-0.0921 0.58209-0.17021-1.9182-0.17364-5.5562-3e-3 -3.638 0.0847-6.2574 0.19573-5.8208 0.1441 0.56631 0.21173 0.14934 0.23601-1.4552 0.11678-7.7166 1.9348-19.858 4.1202-27.517 3.1366-10.992 7.3723-18.89 13.354-24.903 13.353-13.421 30.911-17.828 49.289-12.374 3.4171 1.0142 7.8571 2.8202 10.833 4.4061l2.2932 1.2223 4.4536-2.2767c11.999-6.1336 24.263-9.9281 36.601-11.324 4.2291-0.47834 11.642-1.0447 14.155-1.0815 1.6684-0.02442 2.1436-0.09532 1.5875-0.23683-0.43657-0.11109 2.0042-0.20419 5.424-0.20691 3.4197-0.0027 5.9201 0.0802 5.5562 0.18425-0.40535 0.11593 0.67031 0.25954 2.7781 0.3709 6.4553 0.34104 11.681 1.4115 14.817 3.0351 2.6744 1.3848 5.5561 4.3285 6.92 7.0689 0.57974 1.1648 1.1212 2.3745 1.2032 2.6881 0.10959 0.41907 1.2622 1.1345 4.3473 2.6986 4.6519 2.3583 7.3206 4.0453 10.127 6.4019 1.0295 0.86441 1.9889 1.5717 2.1319 1.5717 0.14303 0 1.7811-0.95634 3.6402-2.1252 3.9248-2.4677 12.464-6.809 16.478-8.3775 6.07-2.3718 10.845-3.7614 16.8-4.8889 4.3444-0.82261 14.67-0.88975 18.785-0.12214 7.9569 1.4843 14.827 4.9328 20.308 10.194 10.242 9.8307 16.984 24.034 20.046 42.229 0.79743 4.7394 1.5644 11.921 1.6088 15.065 0.0188 1.3388 0.0864 1.6811 0.23821 1.2072 0.11676-0.3646 0.21182 2.6634 0.21182 6.7469 0 4.0835-0.0951 7.1115-0.21182 6.7469-0.14939-0.46646-0.22006-0.0764-0.23972 1.3229-0.0696 4.9512-1.3351 16.285-2.6883 24.077-3.8468 22.149-9.6984 38.078-19.477 53.02-5.2581 8.0344-12.068 15.801-16.151 18.42-0.61468 0.39429-1.0413 0.79316-0.94809 0.88639 0.0932 0.0932-0.0192 0.16951-0.24983 0.16951s-0.59562 0.0677-0.81108 0.15033c-0.21547 0.0827-0.44156 0.0529-0.50244-0.0662zm12.805-20.06c4.4084-6.6037 7.1741-11.494 9.3596-16.549l0.9669-2.2365-0.17108-3.4396c-0.34116-6.8596-1.674-14.169-3.7206-20.405-1.9274-5.8726-5.4268-13.77-8.2107-18.53-3.0821-5.2696-9.4049-14.032-9.9033-13.724-0.11324 0.07-0.28668 1.0535-0.38543 2.1856-0.10349 1.1864-0.51573 3.0102-0.97311 4.3053-1.176 3.3299-1.1716 3.1762-0.15041 5.204 1.6003 3.1778 3.7649 9.9397 5.8293 18.21 2.9488 11.813 4.5781 25.363 4.327 35.983-0.13762 5.8194-0.48528 8.4856-1.7077 13.097-0.36649 1.3824-0.72501 2.8112-0.79671 3.175l-0.13038 0.66146 0.53715-0.52917c0.29544-0.29104 2.6037-3.6248 5.1295-7.4083zm-227.23 4.8339c-3.1014-10.668-2.4624-26.034 1.9118-45.977 2.4764-11.29 4.8082-19.644 6.5125-23.331l1.0616-2.2971-0.67596-1.8039c-0.79569-2.1234-1.1287-3.4119-1.3722-5.3097-0.098-0.76398-0.28179-1.3891-0.40838-1.3891-0.30258 0-3.5337 4.9186-6.6048 10.054-3.1902 5.3348-6.2135 11.04-8.0131 15.121-3.0108 6.828-7.7523 20.087-8.7899 24.58l-0.46138 1.9978 1.5304 3.6907c1.8826 4.5403 5.2214 11.27 7.3443 14.803 2.7639 4.6002 7.9372 12.039 8.3727 12.039 0.12399 0-0.0594-0.97991-0.40765-2.1776zm120.42-14.889c7.0852-1.056 10.67-3.2347 13.179-8.0088 2.6685-5.0782 2.9944-12.728 0.8366-19.64-0.38616-1.2369-0.87268-2.5168-1.0812-2.8443l-0.37905-0.59531h-43.387l-0.51379 0.84487c-0.73334 1.2059-2.0763 5.5767-2.3825 7.7541-1.2725 9.0485 2.0623 17.495 8.0428 20.372 1.9431 0.93458 5.359 1.8664 8.2044 2.2381 2.9696 0.3879 14.608 0.3076 17.481-0.12061zm-49.032-4.4312c0.59001-0.8272 0.61946-1.1114 0.77461-7.4745 0.0912-3.7419 0.30506-7.2328 0.49233-8.0381 0.46096-1.9821 0.25746-4.2297-0.47626-5.2601-0.81799-1.1488-5.5151-2.7091-5.5151-2.7091-2.245-0.94459-2.8313-3.9924-0.98583-7.9542 1.9305-4.0849 2.1373-5.3441 0.89962-5.4798-0.3638-0.0399-3.1486 0.8233-6.1885 1.9182-3.0398 1.0949-5.8378 1.9903-6.2177 1.9898-0.92533-1e-3 -2.3504-0.90055-2.7229-1.7182-0.16591-0.36414-0.38686-0.66207-0.491-0.66207-0.32006 0-2.0074 3.4569-2.7491 5.632-1.8084 5.3036-2.3514 10.528-1.2986 12.492 0.31202 0.58208 2.2169 2.6797 4.2331 4.6614 3.3422 3.285 3.7823 3.6282 4.9862 3.888 5.002 2.7309 4.2233 3.7034 8.536 6.9336 3.8145 2.8322 5.6303 3.3132 6.7231 1.7811zm83.416 0.254c1.2791-0.48621 5.8382-4.0214 6.4282-4.9845 2.2597-2.2492 2.2113-2.2703 6.3756-4.122 1.4126-0.66088 6.9134-6.2832 7.7122-7.8824 1.7082-3.4203 0.57345-11.445-2.3291-16.47-0.95244-1.649-1.4465-2.0075-1.734-1.2583-0.22082 0.57544-1.7779 1.4546-2.5783 1.4557-0.37897 5.3e-4 -3.3178-0.94244-6.5308-2.0955-5.5799-2.0025-6.7343-2.2487-7.0226-1.4974-0.2515 0.6554 0.30253 2.511 2.0214 6.7703 1.3016 4.7068 0.87676 5.5486-1.3304 6.3488 0 0-3.9295 1.2573-4.8864 2.2817-1.4109 1.5103-1.524 2.6288-0.87908 8.6983 0.21646 2.0373 0.39483 5.2856 0.39639 7.2184 5e-3 5.7049 0.90504 6.8493 4.357 5.5372zm-69.538-0.31972c0.0837-0.21804-0.32942-1.6813-0.91798-3.2516-0.58857-1.5703-1.3156-4.0598-1.6156-5.5321-1.2652-6.2086-0.24245-13.674 2.6668-19.467 1.7565-3.4972-1.543-3.1029 25.965-3.1029 20.205 0 23.969 0.0579 24.422 0.37569 0.79529 0.55705 2.4081 4.2015 3.1452 7.1069 0.98435 3.8804 1.2764 6.7296 1.1296 11.021-0.14457 4.2282-0.79116 7.3302-2.2534 10.81-1.1134 2.6499-0.9445 2.7721 2.3102 1.6716 1.4586-0.49319 3.7538-1.5052 5.1003-2.249 2.3395-1.2922 2.4561-1.3992 2.6254-2.4106 0.2621-1.5658-0.20778-10.475-0.70688-13.403-0.69705-4.0893-0.92568-3.7327 3.9137-6.1042 2.2954-1.1249 4.2469-2.2366 4.3366-2.4705 0.17591-0.45841-1.8166-5.7408-3.2593-8.6407-0.48686-0.97864-0.8852-2.1353-0.8852-2.5704 0-0.48496-0.17916-0.88453-0.46302-1.0326-0.25466-0.13288-3.0229-1.2034-6.1516-2.3789-11.033-4.1455-13.513-5.3333-14.218-6.8098-0.40077-0.84043-0.40048-0.97435 4e-3 -1.8224 0.28551-0.59873 0.90708-1.1841 1.797-1.6924 1.8555-1.0597 9.7667-4.1882 20.09-7.9444 6.1543-2.2394 8.6234-3.2535 8.685-3.5671 0.0473-0.24103-1.2157-2.6099-2.8067-5.2642-5.8419-9.7461-8.7253-15.076-16.209-29.961-3.947-7.8504-6.6646-12.965-6.8894-12.965-0.24181 0-0.89519 1.5032-1.8749 4.3136-6.4595 18.529-15.183 35.844-24.561 48.753-6.2364 8.5836-14.851 18.164-22.015 24.481-4.5125 3.9795-6.1925 4.6445-7.7158 3.0544-1.0176-1.0621-1.4978-2.8664-1.6768-6.3001-0.0848-1.6263-0.24943-3.1111-0.36591-3.2995-0.22433-0.36297-0.25206-0.35621-3.5825 0.87437-1.158 0.42786-1.382 0.62444-1.5247 1.3379-0.092 0.45997-1.1876 2.9152-2.4346 5.456s-2.2873 4.9086-2.3118 5.2617c-0.0403 0.58154 0.35331 0.82678 4.179 2.6041 2.3229 1.0791 4.4603 2.1989 4.7498 2.4884 0.52546 0.52546 0.52515 0.5314-0.17652 3.376-1.1735 4.7576-1.3587 6.1328-1.3634 10.126-6e-3 5.1488-5e-3 5.1532 2.1683 6.1438 2.0884 0.95222 8.0335 3.3579 8.3323 3.3716 0.11371 5e-3 0.2752-0.16887 0.35887-0.38692zm106.17-8.1296c1.3709-0.18562 2.5356-0.46798 2.5882-0.62746 0.0526-0.15948-0.4142-0.62611-1.0373-1.037-4.3418-2.8627-8.6931-8.2022-12.272-15.06-1.5936-3.053-2.8158-4.811-2.4022-3.4552 0.45472 1.4906 0.71464 5.5217 0.54865 8.5092-0.16697 3.0051-0.24504 3.3775-0.8952 4.2697-1.1865 1.6281-4.3819 4.9226-5.9416 6.126-0.80806 0.62341-1.4692 1.2305-1.4692 1.3491 0 0.1186 0.38695 0.27062 0.85989 0.33782 1.7202 0.24441 17.583-0.0825 20.021-0.41262zm-140.09 0.0826c0.082-0.13275-0.3313-0.6219-0.91854-1.087-0.58725-0.4651-2.4333-2.3819-4.1023-4.2595l-3.0346-3.4139v-2.9229c0-1.6076 0.12847-3.7509 0.28549-4.763 0.35113-2.2631 0.20821-2.7754-0.44823-1.6068-1.4399 2.5636-5.3203 8.1589-7.2399 10.44-2.1274 2.5276-4.4367 4.6707-6.0765 5.6394-1.5921 0.94051-1.3431 1.0324 5.5416 2.046 1.4846 0.21858 15.853 0.15397 15.993-0.0719zm191.41-10.408c0.54382-1.6693 2.3797-9.6505 3.3113-14.395 5.2945-26.965 5.4216-48.655 0.40232-68.662-1.235-4.9229-2.7602-9.0011-5.2774-14.111-5.4071-10.977-11.059-17.427-18.752-21.4-11.821-6.1051-27.46-5.2775-45.52 2.4087-4.6458 1.9772-11.244 5.4159-13.202 6.8804l-0.87846 0.65713 3.4032 3.4781c7.9727 8.1482 11.496 13.159 17.136 24.375l3.1911 6.345 1.3162 0.19913c5.6717 0.85806 8.3855 1.6382 11.688 3.3598 7.1169 3.7102 12.853 10.71 14.662 17.893 0.25719 1.0214 0.81431 1.8227 2.83 4.0702 12.679 14.138 19.707 27.555 24.16 46.124 0.47982 2.0009 0.95724 3.638 1.0609 3.638 0.10371 0 0.31461-0.38695 0.46871-0.85989zm-261.03-5.3579c3.349-9.2374 6.6949-16.748 10.506-23.584 3.6539-6.5532 9.2657-15.078 13.465-20.453 1.6781-2.1484 2.096-2.903 2.8622-5.1683 2.0198-5.9715 6.0628-11.191 11.107-14.338 1.8106-1.1299 4.9904-2.4516 5.9274-2.4638 0.66217-9e-3 0.92733-0.45533 3.1316-5.2761 3.6977-8.087 7.1779-13.879 10.487-17.453 0.9314-1.006 1.6934-1.9006 1.6934-1.9881 0-0.0875-2.2074-0.15905-4.9052-0.15905-8.3211 0-12.879-0.76816-14.254-2.4022-0.80631-0.95824-0.84543-1.5865-0.18817-3.0218 0.77934-1.7018 2.5138-3.6874 5.1053-5.8443 3.0253-2.5179 9.5627-6.884 12.692-8.4765 1.3044-0.66377 2.3264-1.3446 2.2711-1.5129-0.14551-0.44328-5.1608-2.4593-8.3657-3.3628-6.5828-1.8557-13.721-2.5436-19.42-1.8714-3.3269 0.39237-9.1966 1.9037-11.837 3.0478-6.3375 2.7464-12.157 7.6113-17.185 14.367-3.4325 4.6117-5.7578 9.708-8.1935 17.958-6.0414 20.463-5.533 50.753 1.3519 80.548 1.0024 4.3381 1.6803 6.5726 1.9188 6.3245 0.0564-0.0587 0.87957-2.25 1.8292-4.8694zm60.124-8.9463c8.1586-9.8747 19.16-24.125 19.162-24.822 1e-3 -0.31286-0.88367-0.74032-3.2394-1.5647-4.7092-1.6481-5.3777-1.9961-5.8843-3.0636-0.84252-1.7755 0.26692-3.619 2.1694-3.6049 0.55158 4e-3 3.062 0.74541 5.5787 1.6474 2.5167 0.90197 4.7511 1.5727 4.9652 1.4905 0.78564-0.30148 4.9018-6.9578 12.617-20.403 2.839-4.9477 6.1087-10.603 7.266-12.568 1.1573-1.9645 3.2196-5.6345 4.583-8.1555 2.5262-4.6713 3.1702-5.458 4.7217-5.7683 0.66216-0.13243 0.94848-0.018 1.6098 0.64327 1.1932 1.1932 1.1097 2.4956-0.36177 5.6444-3.5108 7.5129-8.5544 26.945-10.868 41.874-0.38124 2.4597-0.65721 4.8278-0.61327 5.2624 0.0756 0.74825 0.2711 0.86994 3.6763 2.2889 3.6672 1.5281 4.8851 2.2599 5.4562 3.2784 0.726 1.2947 0.1451 2.938-1.3694 3.874-0.51074 0.31566-2.6865 1.3116-4.8351 2.2131-2.1485 0.90155-4.0435 1.7261-4.211 1.8323-0.38734 0.24562-0.78786 6.2191-0.44029 6.5666 0.15307 0.15307 1.7552-1.2892 4.2104-3.7903 12.942-13.184 23.62-27.643 30.335-41.079 2.4866-4.9752 4.2533-9.1979 12.065-28.84 5.4712-13.756 6.8479-18.495 7.1092-24.474 0.15793-3.6127-0.16231-5.619-1.2519-7.8429-1.4622-2.9845-4.2813-4.7864-8.5963-5.4947-5.4551-0.8955-19.24-1.2419-26.987-0.6782-14.041 1.0217-25.395 3.5206-35.718 7.8615-5.038 2.1185-12.105 5.5799-15.67 7.6745-1.7142 1.0073-3.6524 2.0867-4.3073 2.3986-3.2429 1.5446-14.663 9.3728-14.48 9.9256 0.25817 0.77999 14.504 0.80696 20.01 0.0379 2.8141-0.39304 3.8168-0.18361 4.6215 0.96528 1.2513 1.7864-0.21333 3.808-3.1527 4.3517-0.87594 0.16201-1.543 0.69263-4.1025 3.2632-5.0168 5.0387-8.3518 9.9369-11.356 16.678-3.1637 7.1002-4.5652 13.315-5.694 25.25-0.78927 8.3452 0.5854 17.908 3.9746 27.651 2.0228 5.8146 5.3102 12.754 6.024 12.717 0.17478-9e-3 1.5166-1.4677 2.9818-3.2411zm134.9-2.1462c0.0916-0.48805 0.53283-1.6205 0.98061-2.5166l0.81414-1.6292-0.68377-0.97969c-0.37608-0.53884-2.234-3.0633-4.1287-5.6099-1.8947-2.5466-4.7762-6.565-6.4034-8.9297-2.2603-3.2849-3.0915-4.2995-3.5221-4.2995-0.61045 0-15.501 5.3905-21.283 7.7048-1.9559 0.7828-3.6035 1.574-3.6615 1.7582-0.0623 0.19811 0.47166 0.58978 1.3072 0.95883 2.506 1.1069 15.104 5.7616 15.978 5.9034 0.71409 0.11588 1.1859-0.10066 3.0212-1.3867 4.6826-3.2812 5.796-2.9728 11.422 3.1634 1.8525 2.0203 3.4231 4.012 3.9412 4.9977 0.47369 0.90134 0.97876 1.7891 1.1224 1.9728 0.38013 0.48619 0.89425-0.0336 1.0958-1.1079zm-120.34-4.1214c2.0961-0.53053 5.4001-2.0057 5.4001-2.411 0-0.3339-0.88498-0.7295-2.0479-0.91546-1.4038-0.22448-3.0806 0.52441-4.8226 2.1538-2.0217 1.891-1.8642 2.0166 1.4704 1.1726zm111.35-0.81493c-1.144-1.1814-2.7542-2.2023-3.8877-2.4649-0.88089-0.2041-3.1685 0.33079-3.0417 0.71121 0.27588 0.82764 5.2568 2.7388 7.3262 2.8111 0.61952 0.0216 0.6015-0.0264-0.39688-1.0574zm20.782-0.8923c10.967-1.6655 18.447-7.4473 20.554-15.887 0.71305-2.8562 0.64361-9.5546-0.13132-12.667-0.6408-2.5741-2.1588-6.0366-3.5031-7.9905-2.8199-4.0986-8.2984-7.7477-13.612-9.0666-3.5494-0.88102-3.5698-0.88349-3.7349-0.45319-0.0833 0.21704 0.10091 1.9166 0.40933 3.7768 1.3598 8.2017 1.7121 16.884 0.94945 23.403-0.50635 4.3286-1.7149 10.01-3.0858 14.507-1.4532 4.7667-1.4525 4.7628-0.85273 4.7609 0.27162-8e-4 1.625-0.17334 3.0074-0.3833zm-116.51-3.6345c2.3494-0.86357 4.4788-1.7216 4.732-1.9067 0.60533-0.44263 1.0916-5.3921 0.57976-5.901-0.17763-0.17658-2.5851-1.1517-5.35-2.1669-4.1216-1.5133-5.1086-1.7894-5.4794-1.5327-0.24875 0.17221-1.8843 2.2017-3.6346 4.5099-2.1864 2.8833-3.1172 4.3133-2.974 4.569 0.11456 0.20471 1.6906 1.2606 3.5023 2.3465 2.3135 1.3866 3.4515 1.9264 3.8232 1.8132 0.29104-0.0886 2.4514-0.86771 4.8008-1.7313zm-45.813 0.57445c-0.5506-1.7348-1.7898-7.083-2.2268-9.611-1.5123-8.747-1.3464-17.149 0.53529-27.108 0.31069-1.6442 0.49939-3.055 0.41933-3.1351-0.23176-0.23177-2.6842 1.2001-4.3395 2.5337-5.1372 4.1386-8.1493 11.757-7.673 19.406 0.40883 6.5652 4.1958 12.54 10.84 17.103 2.1111 1.4498 2.7103 1.6485 2.4444 0.81061zm155.14-3.3681c2.0428-6.7892 2.7123-11.179 2.8815-18.895 0.15009-6.8448-0.0962-10.33-1.1284-15.964-1.5628-8.531-4.6981-16.263-9.6172-23.719-5.4876-8.317-10.11-13.33-17.948-19.466-5.3-4.1489-13.468-9.2582-13.981-8.7454-0.10021 0.10021-0.45695 1.5266-0.79274 3.1697-0.33579 1.6431-1.0888 5.0116-1.6733 7.4854l-1.0627 4.4979 1.3639 3.0427c1.8652 4.161 12.071 24.563 14.89 29.766 4.6697 8.6185 10.722 18.941 11.758 20.054 0.39285 0.42191 0.57568 0.43885 1.6463 0.1525 1.4965-0.40027 2.6954 9e-3 3.2681 1.1168 0.618 1.1951 0.47976 2.2301-0.43739 3.2747-0.46872 0.53384-0.75727 1.1041-0.67162 1.3273 0.46166 1.2031 10.232 14.689 10.642 14.689 0.17857 0 0.56649-0.80368 0.86205-1.7859zm-97.852-2.1828c0-0.14553-0.1786-0.26459-0.39688-0.26459s-0.39687 0.11906-0.39687 0.26459c0 0.14552 0.17859 0.26458 0.39687 0.26458s0.39688-0.11906 0.39688-0.26458zm-5.3816-8.2682c0.11321-0.1819 0.70863-3.3073 1.3232-6.9453 0.61453-3.638 1.4727-8.341 1.907-10.451 0.73304-3.5614 0.75151-4.544 0.0776-4.1275-0.14736 0.0911-1.5223 2.2377-3.0555 4.7702-1.5332 2.5325-4.1045 6.6616-5.714 9.1756-2.3621 3.6894-2.8616 4.6351-2.5899 4.9037 0.28285 0.27965 7.1071 2.9418 7.6631 2.9894 0.10055 9e-3 0.27545-0.13317 0.38865-0.31507zm-70.868 91.96c0.19099-0.0764 0.41919-0.067 0.50712 0.0209 0.0879 0.0879-0.0684 0.15045-0.34727 0.13896-0.30823-0.0127-0.37092-0.0754-0.15985-0.15985z" fill="#0a4ac1"/>
</g>
	</g>
</svg>
