<svg width="600" height="280" version="1.1" viewBox="0 0 600 280" xmlns="http://www.w3.org/2000/svg" xmlns:cc="http://creativecommons.org/ns#" xmlns:dc="http://purl.org/dc/elements/1.1/" xmlns:rdf="http://www.w3.org/1999/02/22-rdf-syntax-ns#" xmlns:xlink="http://www.w3.org/1999/xlink">
	<defs>
		<linearGradient id="b" x1="509.5" x2="509.5" y1="274.29" y2="239.29" gradientTransform="matrix(.71551 0 0 1.0075 145.9 -1.8633)" gradientUnits="userSpaceOnUse">
			<stop stop-color="#b3b3b3" offset="0"/>
			<stop stop-color="#00112b" stop-opacity="0" offset="1"/>
		</linearGradient>
		<radialGradient id="a" cx="175" cy="182.02" r="87.883" gradientTransform="matrix(1.208 -.011548 .023962 .81307 -330.13 30.238)" gradientUnits="userSpaceOnUse">
			<stop stop-color="#2aff2a" offset="0"/>
			<stop stop-color="#2aff2a" offset=".55198"/>
			<stop stop-color="#2aff2a" stop-opacity=".61885" offset=".72602"/>
			<stop stop-color="#2aff2a" stop-opacity=".18033" offset="1"/>
		</radialGradient>
	</defs>
	<metadata>
		<rdf:RDF>
			<cc:Work rdf:about="">
				<dc:format>image/svg+xml</dc:format>
				<dc:type rdf:resource="http://purl.org/dc/dcmitype/StillImage"/>
			</cc:Work>
		</rdf:RDF>
	</metadata>
	<style>
		svg {background: white;}
		#progressBar {
			width: 240px;
			height: 40px;
		  animation-name: moveProgressBar;
		  animation-duration: 4s;
		  animation-iteration-count: infinite;
			animation-timing-function: linear;
		}
		@keyframes moveProgressBar {
		  from { transform: translateX(0px); }
		  to { transform: translateX(840px); }
		}
	</style>
	<rect id='progressBar' x="-237" y="155" ry="4.7054" fill="url(#a)" style="paint-order:normal"/>
	<path d="m0 0v280h600v-280zm44.715 164h510.57c7.3207 0 7.2148 1.8941 7.2148 9.2148v6.4277c0 7.3207 0.10587 9.2148-7.2148 9.2148h-510.57c-7.3207 0-7.2148-1.8941-7.2148-9.2148v-6.4277c0-7.3207-0.10587-9.2148 7.2148-9.2148z" fill="#f2f2f2" stroke="#000" stroke-linecap="square" stroke-width="1.8" style="paint-order:stroke markers fill"/>
	<rect width="600" height="32" ry="0" fill="#7bb6ef" stroke="#000" stroke-linejoin="round" style="paint-order:stroke fill markers"/>
	<path d="m565 0h35v32h-35z" fill="#f00"/>
	<path d="m582.5 5.735c-5.6706 0-10.265 4.5944-10.265 10.265s4.5944 10.265 10.265 10.265c5.6706 0 10.265-4.5944 10.265-10.265s-4.5944-10.265-10.265-10.265zm5.0332 12.96c0.19454 0.19454 0.19454 0.50911 0 0.70365l-1.6391 1.635c-0.19455 0.19454-0.50913 0.19454-0.70366 0l-2.6904-2.7153-2.6946 2.7153c-0.19454 0.19454-0.5091 0.19454-0.70364 0l-1.635-1.6391c-0.19453-0.19454-0.19453-0.50911 0-0.70365l2.7153-2.6904-2.7153-2.6946c-0.19453-0.19454-0.19453-0.50911 0-0.70365l1.6391-1.6391c0.19453-0.19454 0.5091-0.19454 0.70365 0l2.6904 2.7194 2.6946-2.7153c0.19454-0.19454 0.50911-0.19454 0.70366 0l1.6391 1.6391c0.19454 0.19454 0.19454 0.50911 0 0.70365l-2.7194 2.6904z" fill="#fff"/>
	<g transform="translate(0,10)" aria-label="Vocaloid has stopped working">
		<path fill="#2d368f"
			d="m407.92 78.354q-0.32 0.21333-1.2533 0.56-0.90667 0.32-2.1333 0.32-1.2533 0-2.3733-0.4-1.0933-0.4-1.92-1.2267-0.82666-0.85333-1.3067-2.1067-0.48-1.2533-0.48-2.9867 0-1.52 0.45333-2.7733 0.45333-1.28 1.3067-2.1867 0.88-0.93333 2.1333-1.44 1.2533-0.53333 2.8267-0.53333 1.7333 0 3.0133 0.26667 1.3067 0.24 2.1867 0.45333v12.373q0 3.2-1.6533 4.64-1.6533 1.44-5.0133 1.44-1.3067 0-2.48-0.21333-1.1467-0.21333-2-0.50667l0.45333-2.16q0.74667 0.29333 1.8133 0.50667 1.0933 0.24 2.2667 0.24 2.2133 0 3.1733-0.88 0.98666-0.88 0.98666-2.8zm-0.0267-10.293q-0.37334-0.10667-1.0133-0.18667-0.61333-0.10667-1.68-0.10667-2 0-3.0933 1.3067-1.0667 1.3067-1.0667 3.4667 0 1.2 0.29334 2.0533 0.32 0.85333 0.82666 1.4133 0.53334 0.56 1.2 0.82667 0.69334 0.26667 1.4133 0.26667 0.98666 0 1.8133-0.26667 0.82667-0.29333 1.3067-0.66667zm-23.979-1.7867q0.85333-0.21333 2.2667-0.45333 1.4133-0.24 3.2533-0.24 1.6533 0 2.7467 0.48 1.0933 0.45333 1.7333 1.3067 0.66667 0.82667 0.93333 2 0.26667 1.1733 0.26667 2.5867v7.7867h-2.48v-7.2533q0-1.28-0.18667-2.1867-0.16-0.90667-0.56-1.4667t-1.0667-0.8q-0.66667-0.26667-1.6533-0.26667-0.4 0-0.82666 0.02667-0.42667 0.02667-0.82667 0.08-0.37333 0.02667-0.69333 0.08-0.29334 0.05333-0.42667 0.08v11.707h-2.48zm-4.2908 13.467h-2.48v-13.867h2.48zm-1.2533-16.373q-0.66666 0-1.1467-0.42667-0.45334-0.45333-0.45334-1.2t0.45334-1.1733q0.48-0.45333 1.1467-0.45333 0.66667 0 1.12 0.45333 0.48 0.42667 0.48 1.1733t-0.48 1.2q-0.45333 0.42667-1.12 0.42667zm-10.12 8.7467q0.8 0.61333 1.68 1.52 0.90667 0.90667 1.76 1.9733 0.88 1.04 1.6533 2.1333 0.77334 1.0667 1.3067 2h-2.9067q-0.56-0.93333-1.3067-1.8933-0.72-0.98667-1.52-1.8667-0.8-0.90667-1.6267-1.6533-0.82667-0.74667-1.5733-1.2533v6.6667h-2.48v-20.267l2.48-0.42667v12.64q0.64-0.64 1.4133-1.4133t1.52-1.5733 1.4133-1.52q0.66667-0.74667 1.1467-1.3067h2.9067q-0.61334 0.66667-1.3333 1.4667t-1.4933 1.6267q-0.77333 0.8-1.5733 1.6267-0.77334 0.8-1.4667 1.52zm-10.206-6.5333q0.32 0 0.72 0.05333 0.42666 0.02667 0.82666 0.10667 0.4 0.05333 0.72 0.13333 0.34667 0.05333 0.50667 0.10667l-0.42667 2.16q-0.29333-0.10667-0.98666-0.24-0.66667-0.16-1.7333-0.16-0.69333 0-1.3867 0.16-0.66667 0.13333-0.88 0.18667v11.653h-2.48v-13.28q0.88-0.32 2.1867-0.58667 1.3067-0.29333 2.9333-0.29333zm-8.6092 7.2267q0 1.6533-0.48 2.9867t-1.36 2.2933q-0.85333 0.96-2.0533 1.4933-1.2 0.50667-2.6133 0.50667-1.4133 0-2.6133-0.50667-1.2-0.53333-2.08-1.4933-0.85333-0.96-1.3333-2.2933t-0.48-2.9867q0-1.6267 0.48-2.96 0.48-1.36 1.3333-2.32 0.88-0.96 2.08-1.4667 1.2-0.53333 2.6133-0.53333 1.4133 0 2.6133 0.53333 1.2 0.50667 2.0533 1.4667 0.88 0.96 1.36 2.32 0.48 1.3333 0.48 2.96zm-2.5867 0q0-2.3467-1.0667-3.7067-1.04-1.3867-2.8533-1.3867-1.8133 0-2.88 1.3867-1.04 1.36-1.04 3.7067 0 2.3467 1.04 3.7333 1.0667 1.36 2.88 1.36 1.8133 0 2.8533-1.36 1.0667-1.3867 1.0667-3.7333zm-18.737 6.9333q-0.74667-1.92-1.6-4.3733-0.82667-2.48-1.52-5.1467-0.69334 2.6667-1.52 5.1467-0.82667 2.4533-1.5733 4.3733h-2.16q-1.2267-2.7467-2.4-6.2667-1.1733-3.52-2.2133-7.6h2.6667q0.26666 1.2533 0.64 2.72 0.37333 1.4667 0.77333 2.9333 0.42667 1.4667 0.88 2.8267t0.85333 2.3733q0.45334-1.2533 0.88-2.64 0.45334-1.4133 0.85334-2.8267 0.4-1.44 0.74666-2.8 0.37334-1.3867 0.64-2.5867h2.0533q0.24 1.2 0.58666 2.5867 0.34667 1.36 0.74667 2.8 0.4 1.4133 0.82667 2.8267 0.45333 1.3867 0.90666 2.64 0.4-1.0133 0.82667-2.3733 0.45333-1.36 0.88-2.8267 0.42667-1.4667 0.8-2.9333t0.64-2.72h2.56q-1.04 4.08-2.2133 7.6-1.1733 3.52-2.4 6.2667zm-24.248-10.933q-0.45333-0.37333-1.3067-0.72-0.85333-0.34667-1.8667-0.34667-1.0667 0-1.84 0.4-0.74667 0.37333-1.2267 1.0667-0.48 0.66667-0.69333 1.6-0.21334 0.93333-0.21334 2 0 2.4267 1.2 3.76 1.2 1.3067 3.2 1.3067 1.0133 0 1.68-0.08 0.69334-0.10667 1.0667-0.21333zm0-9.3333 2.48-0.42667v20.293q-0.85333 0.24-2.1867 0.48-1.3333 0.24-3.0667 0.24-1.6 0-2.88-0.50667-1.28-0.50667-2.1867-1.44t-1.4133-2.2667q-0.48-1.36-0.48-3.04 0-1.6 0.4-2.9333 0.42666-1.3333 1.2267-2.2933t1.9467-1.4933q1.1733-0.53333 2.6667-0.53333 1.2 0 2.1067 0.32 0.93334 0.32 1.3867 0.61333zm-24.629 13.36q0-1.84 0.53333-3.2 0.53333-1.3867 1.4133-2.2933 0.88-0.90667 2.0267-1.36 1.1467-0.45333 2.3467-0.45333 2.8 0 4.2933 1.76 1.4933 1.7333 1.4933 5.3067 0 0.16 0 0.42667 0 0.24-0.0267 0.45333h-9.4933q0.16 2.16 1.2533 3.28 1.0933 1.12 3.4133 1.12 1.3067 0 2.1867-0.21333 0.90666-0.24 1.36-0.45333l0.34666 2.08q-0.45333 0.24-1.6 0.50667-1.12 0.26667-2.56 0.26667-1.8133 0-3.1467-0.53333-1.3067-0.56-2.16-1.52-0.85334-0.96-1.28-2.2667-0.4-1.3333-0.4-2.9067zm9.52-1.36q0.0267-1.68-0.85334-2.7467-0.85333-1.0933-2.3733-1.0933-0.85333 0-1.52 0.34667-0.64 0.32-1.0933 0.85333-0.45334 0.53333-0.72 1.2267-0.24 0.69333-0.32 1.4133zm-14.849 1.36q0-2.4267-1.2-3.7333-1.2-1.3067-3.2-1.3067-1.12 0-1.76 0.08-0.61334 0.08-0.98667 0.18667v8.7467q0.45333 0.37333 1.3067 0.72 0.85333 0.34667 1.8667 0.34667 1.0667 0 1.8133-0.37333 0.77333-0.4 1.2533-1.0667 0.48-0.69333 0.69333-1.6 0.21334-0.93333 0.21334-2zm2.5867 0q0 1.5733-0.42666 2.9067-0.4 1.3333-1.2 2.2933t-1.9733 1.4933q-1.1467 0.53333-2.64 0.53333-1.2 0-2.1333-0.32-0.90667-0.32-1.36-0.61333v5.5467h-2.48v-18.373q0.88-0.21333 2.1867-0.45333 1.3333-0.26667 3.0667-0.26667 1.6 0 2.88 0.50667 1.28 0.50667 2.1867 1.44 0.90667 0.93333 1.3867 2.2933 0.50666 1.3333 0.50666 3.0133zm-18.316 0q0-2.4267-1.2-3.7333-1.2-1.3067-3.2-1.3067-1.12 0-1.76 0.08-0.61333 0.08-0.98666 0.18667v8.7467q0.45333 0.37333 1.3067 0.72 0.85334 0.34667 1.8667 0.34667 1.0667 0 1.8133-0.37333 0.77334-0.4 1.2533-1.0667 0.48-0.69333 0.69333-1.6 0.21333-0.93333 0.21333-2zm2.5867 0q0 1.5733-0.42667 2.9067-0.4 1.3333-1.2 2.2933t-1.9733 1.4933q-1.1467 0.53333-2.64 0.53333-1.2 0-2.1333-0.32-0.90667-0.32-1.36-0.61333v5.5467h-2.48v-18.373q0.88-0.21333 2.1867-0.45333 1.3333-0.26667 3.0667-0.26667 1.6 0 2.88 0.50667 1.28 0.50667 2.1867 1.44 0.90666 0.93333 1.3867 2.2933 0.50667 1.3333 0.50667 3.0133zm-15.702-0.02667q0 1.6533-0.48 2.9867t-1.36 2.2933q-0.85333 0.96-2.0533 1.4933-1.2 0.50667-2.6133 0.50667-1.4133 0-2.6133-0.50667-1.2-0.53333-2.08-1.4933-0.85333-0.96-1.3333-2.2933t-0.48-2.9867q0-1.6267 0.48-2.96 0.48-1.36 1.3333-2.32 0.88-0.96 2.08-1.4667 1.2-0.53333 2.6133-0.53333 1.4133 0 2.6133 0.53333 1.2 0.50667 2.0533 1.4667 0.88 0.96 1.36 2.32 0.48 1.3333 0.48 2.96zm-2.5867 0q0-2.3467-1.0667-3.7067-1.04-1.3867-2.8533-1.3867-1.8133 0-2.88 1.3867-1.04 1.36-1.04 3.7067 0 2.3467 1.04 3.7333 1.0667 1.36 2.88 1.36 1.8133 0 2.8533-1.36 1.0667-1.3867 1.0667-3.7333zm-17.698-6.9333h5.2533v2.08h-5.2533v6.4q0 1.04 0.16 1.7333 0.16 0.66667 0.48 1.0667 0.32 0.37333 0.8 0.53333t1.12 0.16q1.12 0 1.7867-0.24 0.69334-0.26667 0.96-0.37333l0.48 2.0533q-0.37333 0.18667-1.3067 0.45333-0.93334 0.29333-2.1333 0.29333-1.4133 0-2.3467-0.34667-0.90667-0.37333-1.4667-1.0933t-0.8-1.76q-0.21333-1.0667-0.21333-2.4533v-12.373l2.48-0.42667zm-10.968 12.08q1.52 0 2.24-0.4 0.74667-0.4 0.74667-1.28 0-0.90667-0.72-1.44t-2.3733-1.2q-0.8-0.32-1.5467-0.64-0.72-0.34667-1.2533-0.8-0.53334-0.45333-0.85334-1.0933t-0.32-1.5733q0-1.84 1.36-2.9067 1.36-1.0933 3.7067-1.0933 0.58667 0 1.1733 0.08 0.58667 0.05333 1.0933 0.16 0.50666 0.08 0.88 0.18667 0.4 0.10667 0.61333 0.18667l-0.45333 2.1333q-0.4-0.21333-1.2533-0.42667-0.85333-0.24-2.0533-0.24-1.04 0-1.8133 0.42667-0.77334 0.4-0.77334 1.28 0 0.45333 0.16 0.8 0.18667 0.34667 0.53334 0.64 0.37333 0.26667 0.90666 0.50667 0.53334 0.24 1.28 0.50667 0.98667 0.37333 1.76 0.74667 0.77334 0.34667 1.3067 0.82667 0.56 0.48 0.85333 1.1733 0.29334 0.66667 0.29334 1.6533 0 1.92-1.44 2.9067-1.4133 0.98667-4.0533 0.98667-1.84 0-2.88-0.32-1.04-0.29333-1.4133-0.45333l0.45333-2.1333q0.42667 0.16 1.36 0.48 0.93334 0.32 2.48 0.32zm-18.021 0q1.52 0 2.24-0.4 0.74666-0.4 0.74666-1.28 0-0.90667-0.72-1.44t-2.3733-1.2q-0.8-0.32-1.5467-0.64-0.72-0.34667-1.2533-0.8t-0.85333-1.0933-0.32-1.5733q0-1.84 1.36-2.9067 1.36-1.0933 3.7067-1.0933 0.58667 0 1.1733 0.08 0.58666 0.05333 1.0933 0.16 0.50667 0.08 0.88 0.18667 0.4 0.10667 0.61333 0.18667l-0.45333 2.1333q-0.4-0.21333-1.2533-0.42667-0.85334-0.24-2.0533-0.24-1.04 0-1.8133 0.42667-0.77333 0.4-0.77333 1.28 0 0.45333 0.16 0.8 0.18666 0.34667 0.53333 0.64 0.37333 0.26667 0.90667 0.50667 0.53333 0.24 1.28 0.50667 0.98666 0.37333 1.76 0.74667 0.77333 0.34667 1.3067 0.82667 0.56 0.48 0.85334 1.1733 0.29333 0.66667 0.29333 1.6533 0 1.92-1.44 2.9067-1.4133 0.98667-4.0533 0.98667-1.84 0-2.88-0.32-1.04-0.29333-1.4133-0.45333l0.45334-2.1333q0.42666 0.16 1.36 0.48 0.93333 0.32 2.48 0.32zm-12.44 0q0.88 0 1.5467-0.02667 0.69333-0.05333 1.1467-0.16v-4.1333q-0.26667-0.13333-0.88-0.21333-0.58667-0.10667-1.44-0.10667-0.56 0-1.2 0.08-0.61334 0.08-1.1467 0.34667-0.50667 0.24-0.85333 0.69333-0.34667 0.42667-0.34667 1.1467 0 1.3333 0.85333 1.8667 0.85334 0.50667 2.32 0.50667zm-0.21333-12.427q1.4933 0 2.5067 0.4 1.04 0.37333 1.6533 1.0933 0.64 0.69333 0.90667 1.68 0.26666 0.96 0.26666 2.1333v8.6667q-0.32 0.05333-0.90666 0.16-0.56 0.08-1.28 0.16t-1.5733 0.13333q-0.82666 0.08-1.6533 0.08-1.1733 0-2.16-0.24t-1.7067-0.74667q-0.72-0.53333-1.12-1.3867-0.4-0.85333-0.4-2.0533 0-1.1467 0.45334-1.9733 0.48-0.82667 1.28-1.3333 0.8-0.50667 1.8667-0.74667 1.0667-0.24 2.24-0.24 0.37334 0 0.77334 0.05333 0.4 0.02667 0.74666 0.10667 0.37334 0.05333 0.64 0.10667 0.26667 0.05333 0.37334 0.08v-0.69333q0-0.61333-0.13334-1.2-0.13333-0.61333-0.48-1.0667-0.34666-0.48-0.96-0.74667-0.58666-0.29333-1.5467-0.29333-1.2267 0-2.16 0.18667-0.90667 0.16-1.36 0.34667l-0.29334-2.0533q0.48-0.21333 1.6-0.4 1.12-0.21333 2.4267-0.21333zm-19.688 14.213v-20.267l2.48-0.42667v7.0933q0.69334-0.26667 1.4667-0.4 0.8-0.16 1.5733-0.16 1.6533 0 2.7467 0.48 1.0933 0.45333 1.7333 1.3067 0.66667 0.82667 0.93334 2 0.26666 1.1733 0.26666 2.5867v7.7867h-2.48v-7.2533q0-1.28-0.18666-2.1867-0.16-0.90667-0.56-1.4667t-1.0667-0.8q-0.66667-0.26667-1.6533-0.26667-0.4 0-0.82667 0.05333t-0.82667 0.13333q-0.37333 0.05333-0.69333 0.13333-0.29333 0.08-0.42667 0.13333v11.52zm-12.915-10.933q-0.45333-0.37333-1.3067-0.72-0.85333-0.34667-1.8667-0.34667-1.0667 0-1.84 0.4-0.74667 0.37333-1.2267 1.0667-0.48 0.66667-0.69333 1.6-0.21334 0.93333-0.21334 2 0 2.4267 1.2 3.76 1.2 1.3067 3.2 1.3067 1.0133 0 1.68-0.08 0.69334-0.10667 1.0667-0.21333zm0-9.3333 2.48-0.42667v20.293q-0.85333 0.24-2.1867 0.48-1.3333 0.24-3.0667 0.24-1.6 0-2.88-0.50667-1.28-0.50667-2.1867-1.44t-1.4133-2.2667q-0.48-1.36-0.48-3.04 0-1.6 0.4-2.9333 0.42666-1.3333 1.2267-2.2933t1.9467-1.4933q1.1733-0.53333 2.6667-0.53333 1.2 0 2.1067 0.32 0.93334 0.32 1.3867 0.61333zm-13.251 20.267h-2.48v-13.867h2.48zm-1.2533-16.373q-0.66666 0-1.1467-0.42667-0.45334-0.45333-0.45334-1.2t0.45334-1.1733q0.48-0.45333 1.1467-0.45333 0.66667 0 1.12 0.45333 0.48 0.42667 0.48 1.1733t-0.48 1.2q-0.45333 0.42667-1.12 0.42667zm-4.7158 9.44q0 1.6533-0.48 2.9867t-1.36 2.2933q-0.85333 0.96-2.0533 1.4933-1.2 0.50667-2.6133 0.50667-1.4133 0-2.6133-0.50667-1.2-0.53333-2.08-1.4933-0.85333-0.96-1.3333-2.2933t-0.48-2.9867q0-1.6267 0.48-2.96 0.48-1.36 1.3333-2.32 0.88-0.96 2.08-1.4667 1.2-0.53333 2.6133-0.53333 1.4133 0 2.6133 0.53333 1.2 0.50667 2.0533 1.4667 0.88 0.96 1.36 2.32 0.48 1.3333 0.48 2.96zm-2.5867 0q0-2.3467-1.0667-3.7067-1.04-1.3867-2.8533-1.3867-1.8133 0-2.88 1.3867-1.04 1.36-1.04 3.7067 0 2.3467 1.04 3.7333 1.0667 1.36 2.88 1.36 1.8133 0 2.8533-1.36 1.0667-1.3867 1.0667-3.7333zm-12.785 7.2q-2.2933-0.05333-3.2533-0.98667-0.96-0.93333-0.96-2.9067v-16.64l2.48-0.42667v16.667q0 0.61333 0.10667 1.0133 0.10666 0.4 0.34666 0.64t0.64 0.37333q0.4 0.10667 0.98667 0.18667zm-13.373-2.0533q0.88 0 1.5467-0.02667 0.69334-0.05333 1.1467-0.16v-4.1333q-0.26667-0.13333-0.88-0.21333-0.58667-0.10667-1.44-0.10667-0.56 0-1.2 0.08-0.61333 0.08-1.1467 0.34667-0.50666 0.24-0.85333 0.69333-0.34667 0.42667-0.34667 1.1467 0 1.3333 0.85334 1.8667 0.85333 0.50667 2.32 0.50667zm-0.21334-12.427q1.4933 0 2.5067 0.4 1.04 0.37333 1.6533 1.0933 0.64 0.69333 0.90667 1.68 0.26667 0.96 0.26667 2.1333v8.6667q-0.32 0.05333-0.90667 0.16-0.56 0.08-1.28 0.16t-1.5733 0.13333q-0.82667 0.08-1.6533 0.08-1.1733 0-2.16-0.24-0.98666-0.24-1.7067-0.74667-0.72-0.53333-1.12-1.3867-0.4-0.85333-0.4-2.0533 0-1.1467 0.45333-1.9733 0.48-0.82667 1.28-1.3333 0.8-0.50667 1.8667-0.74667 1.0667-0.24 2.24-0.24 0.37333 0 0.77333 0.05333 0.4 0.02667 0.74667 0.10667 0.37333 0.05333 0.64 0.10667 0.26666 0.05333 0.37333 0.08v-0.69333q0-0.61333-0.13333-1.2-0.13334-0.61333-0.48-1.0667-0.34667-0.48-0.96-0.74667-0.58667-0.29333-1.5467-0.29333-1.2267 0-2.16 0.18667-0.90667 0.16-1.36 0.34667l-0.29333-2.0533q0.48-0.21333 1.6-0.4 1.12-0.21333 2.4267-0.21333zm-10.849 14.533q-1.68 0-2.96-0.53333-1.2533-0.53333-2.1333-1.4933-0.85333-0.96-1.28-2.2667-0.42667-1.3333-0.42667-2.9333t0.45333-2.9333q0.48-1.3333 1.3333-2.2933 0.85333-0.98667 2.08-1.52 1.2533-0.56 2.7733-0.56 0.93333 0 1.8667 0.16 0.93333 0.16 1.7867 0.50667l-0.56 2.1067q-0.56-0.26667-1.3067-0.42667-0.72-0.16-1.5467-0.16-2.08 0-3.2 1.3067-1.0933 1.3067-1.0933 3.8133 0 1.12 0.24 2.0533 0.26667 0.93333 0.8 1.6 0.56 0.66667 1.4133 1.04 0.85333 0.34667 2.08 0.34667 0.98667 0 1.7867-0.18667 0.8-0.18667 1.2533-0.4l0.34667 2.08q-0.21333 0.13333-0.61333 0.26667-0.4 0.10667-0.90667 0.18667-0.50667 0.10667-1.0933 0.16-0.56 0.08-1.0933 0.08zm-9.5158-7.2533q0 1.6533-0.48 2.9867t-1.36 2.2933q-0.85333 0.96-2.0533 1.4933-1.2 0.50667-2.6133 0.50667-1.4133 0-2.6133-0.50667-1.2-0.53333-2.08-1.4933-0.85333-0.96-1.3333-2.2933t-0.48-2.9867q0-1.6267 0.48-2.96 0.48-1.36 1.3333-2.32 0.88-0.96 2.08-1.4667 1.2-0.53333 2.6133-0.53333 1.4133 0 2.6133 0.53333 1.2 0.50667 2.0533 1.4667 0.88 0.96 1.36 2.32 0.48 1.3333 0.48 2.96zm-2.5867 0q0-2.3467-1.0667-3.7067-1.04-1.3867-2.8533-1.3867-1.8133 0-2.88 1.3867-1.04 1.36-1.04 3.7067 0 2.3467 1.04 3.7333 1.0667 1.36 2.88 1.36 1.8133 0 2.8533-1.36 1.0667-1.3867 1.0667-3.7333zm-10.862-11.547q-1.0133 2.9333-1.9467 5.44-0.90667 2.48-1.7867 4.72t-1.76 4.2933q-0.85333 2.0267-1.76 4.0267h-2.4267q-0.90667-2-1.7867-4.0267-0.85333-2.0533-1.76-4.2933-0.88-2.24-1.8133-4.72-0.93333-2.5067-1.92-5.44h2.8533q1.44 4.2133 2.8267 8.1067 1.3867 3.8933 2.8533 7.3067 1.4667-3.3867 2.8533-7.28 1.3867-3.92 2.8-8.1333z"></path>
		<path
			d="m505.65 131.51q0 0.504-0.336 0.87733-0.336 0.37334-0.91466 0.37334-0.57867 0-0.91467-0.37334-0.336-0.37333-0.336-0.87733t0.336-0.87733q0.336-0.37334 0.91467-0.37334 0.57866 0 0.91466 0.37334 0.336 0.37333 0.336 0.87733zm-4.5938 0q0 0.504-0.336 0.87733-0.336 0.37334-0.91466 0.37334-0.57867 0-0.91467-0.37334-0.336-0.37333-0.336-0.87733t0.336-0.87733q0.336-0.37334 0.91467-0.37334 0.57866 0 0.91466 0.37334 0.336 0.37333 0.336 0.87733zm-4.5938 0q0 0.504-0.336 0.87733-0.336 0.37334-0.91466 0.37334-0.57867 0-0.91467-0.37334-0.336-0.37333-0.336-0.87733t0.336-0.87733q0.336-0.37334 0.91467-0.37334 0.57866 0 0.91466 0.37334 0.336 0.37333 0.336 0.87733zm-18.131-8.4187q0.59733-0.14933 1.568-0.31733 0.98933-0.168 2.2773-0.168 0.93333 0 1.568 0.26133 0.63467 0.24267 1.064 0.728 0.13067-0.0933 0.41067-0.26133 0.28-0.168 0.69066-0.31733 0.41067-0.168 0.91467-0.28 0.504-0.13067 1.0827-0.13067 1.12 0 1.8293 0.336 0.70933 0.31733 1.1013 0.91467 0.41067 0.59733 0.54133 1.4187 0.14934 0.82134 0.14934 1.792v5.4507h-1.736v-5.0773q0-0.85867-0.0933-1.4747-0.0747-0.616-0.31733-1.0267-0.224-0.41066-0.63466-0.59733-0.392-0.20533-1.0267-0.20533-0.87733 0-1.456 0.24266-0.56 0.224-0.76533 0.41067 0.14933 0.48533 0.224 1.064 0.0747 0.57867 0.0747 1.2133v5.4507h-1.736v-5.0773q0-0.85867-0.0933-1.4747t-0.336-1.0267q-0.224-0.41066-0.63467-0.59733-0.392-0.20533-1.008-0.20533-0.26133 0-0.56 0.0187-0.29866 0.0187-0.57866 0.056-0.26134 0.0187-0.48534 0.056t-0.29866 0.056v8.1947h-1.736zm-10.968 4.592q0-1.288 0.37333-2.24 0.37334-0.97066 0.98934-1.6053t1.4187-0.952q0.80267-0.31733 1.6427-0.31733 1.96 0 3.0053 1.232 1.0453 1.2133 1.0453 3.7147 0 0.112 0 0.29867 0 0.168-0.0187 0.31733h-6.6453q0.112 1.512 0.87733 2.296t2.3893 0.784q0.91467 0 1.5307-0.14933 0.63466-0.168 0.952-0.31733l0.24266 1.456q-0.31733 0.168-1.12 0.35466-0.78399 0.18667-1.792 0.18667-1.2693 0-2.2027-0.37333-0.91467-0.392-1.512-1.064t-0.896-1.5867q-0.28-0.93333-0.28-2.0347zm6.664-0.952q0.0187-1.176-0.59733-1.9227-0.59734-0.76534-1.6613-0.76534-0.59733 0-1.064 0.24267-0.448 0.224-0.76533 0.59733-0.31733 0.37334-0.504 0.85867-0.168 0.48533-0.224 0.98933zm-8.3148 5.9733q-1.6053-0.0373-2.2773-0.69067-0.672-0.65333-0.672-2.0347v-11.648l1.736-0.29866v11.667q0 0.42934 0.0747 0.70934t0.24267 0.448q0.168 0.168 0.448 0.26133 0.28 0.0747 0.69066 0.13067zm-12.186-9.464q0.31733-0.20534 0.952-0.42934 0.65333-0.224 1.4933-0.224 1.0453 0 1.848 0.37334 0.82134 0.37333 1.3813 1.0453t0.84 1.6053q0.29866 0.93334 0.29866 2.0533 0 1.176-0.35466 2.128-0.336 0.93333-0.97067 1.5867-0.63467 0.65334-1.5307 1.008-0.896 0.35467-2.016 0.35467-1.2133 0-2.1467-0.168-0.93334-0.168-1.5307-0.336v-13.907l1.736-0.29866zm0 7.7653q0.26133 0.0747 0.728 0.14933 0.48533 0.056 1.1947 0.056 1.4 0 2.24-0.91466 0.84-0.93334 0.84-2.632 0-0.74667-0.14934-1.4-0.14933-0.65334-0.48533-1.12-0.336-0.48534-0.87733-0.74667-0.52267-0.28-1.2693-0.28-0.70933 0-1.3067 0.24267-0.59734 0.24266-0.91467 0.504zm-4.1784-3.3413q0 1.1573-0.336 2.0907-0.336 0.93334-0.952 1.6053-0.59733 0.672-1.4373 1.0453-0.84 0.35467-1.8293 0.35467-0.98934 0-1.8293-0.35467-0.84-0.37333-1.456-1.0453-0.59733-0.672-0.93333-1.6053-0.336-0.93333-0.336-2.0907 0-1.1387 0.336-2.072 0.336-0.952 0.93333-1.624 0.616-0.672 1.456-1.0267 0.84-0.37333 1.8293-0.37333 0.98933 0 1.8293 0.37333 0.84 0.35467 1.4373 1.0267 0.616 0.672 0.952 1.624 0.336 0.93333 0.336 2.072zm-1.8107 0q0-1.6427-0.74666-2.5947-0.728-0.97067-1.9973-0.97067-1.2693 0-2.016 0.97067-0.728 0.952-0.728 2.5947 0 1.6427 0.728 2.6133 0.74666 0.952 2.016 0.952 1.2693 0 1.9973-0.952 0.74666-0.97067 0.74666-2.6133zm-10.392-5.0587q0.224 0 0.504 0.0373 0.29867 0.0187 0.57867 0.0747 0.28 0.0373 0.504 0.0933 0.24267 0.0373 0.35467 0.0747l-0.29867 1.512q-0.20533-0.0747-0.69067-0.168-0.46666-0.112-1.2133-0.112-0.48533 0-0.97067 0.112-0.46666 0.0933-0.616 0.13067v8.1573h-1.736v-9.296q0.616-0.224 1.5307-0.41067 0.91467-0.20533 2.0533-0.20533zm-7.8557 5.0773q0-1.6987-0.84-2.6133t-2.24-0.91467q-0.784 0-1.232 0.056-0.42933 0.056-0.69066 0.13067v6.1227q0.31733 0.26133 0.91466 0.504 0.59734 0.24266 1.3067 0.24266 0.74667 0 1.2693-0.26133 0.54134-0.28 0.87734-0.74667 0.336-0.48533 0.48533-1.12 0.14933-0.65333 0.14933-1.4zm1.8107 0q0 1.1013-0.29867 2.0347-0.28 0.93333-0.84 1.6053t-1.3813 1.0453q-0.80267 0.37333-1.848 0.37333-0.84 0-1.4933-0.224-0.63467-0.224-0.952-0.42933v3.8827h-1.736v-12.861q0.616-0.14933 1.5307-0.31733 0.93334-0.18667 2.1467-0.18667 1.12 0 2.016 0.35467 0.896 0.35466 1.5307 1.008 0.63466 0.65333 0.97066 1.6053 0.35467 0.93333 0.35467 2.1093zm-23.82 0q0-1.288 0.37333-2.24 0.37333-0.97066 0.98933-1.6053t1.4187-0.952 1.6427-0.31733q1.96 0 3.0053 1.232 1.0453 1.2133 1.0453 3.7147 0 0.112 0 0.29867 0 0.168-0.0187 0.31733h-6.6453q0.112 1.512 0.87734 2.296 0.76533 0.784 2.3893 0.784 0.91467 0 1.5307-0.14933 0.63466-0.168 0.952-0.31733l0.24266 1.456q-0.31733 0.168-1.12 0.35466-0.784 0.18667-1.792 0.18667-1.2693 0-2.2027-0.37333-0.91467-0.392-1.512-1.064-0.59734-0.672-0.896-1.5867-0.28-0.93333-0.28-2.0347zm6.664-0.952q0.0187-1.176-0.59734-1.9227-0.59733-0.76534-1.6613-0.76534-0.59733 0-1.064 0.24267-0.448 0.224-0.76533 0.59733-0.31734 0.37334-0.504 0.85867-0.168 0.48533-0.224 0.98933zm-16.769 5.7867v-14.187l1.736-0.29866v4.9653q0.48533-0.18667 1.0267-0.28 0.56-0.112 1.1013-0.112 1.1573 0 1.9227 0.336 0.76534 0.31733 1.2133 0.91467 0.46666 0.57866 0.65333 1.4 0.18667 0.82133 0.18667 1.8107v5.4507h-1.736v-5.0773q0-0.896-0.13067-1.5307-0.112-0.63467-0.392-1.0267t-0.74667-0.56q-0.46666-0.18666-1.1573-0.18666-0.28 0-0.57867 0.0373-0.29866 0.0373-0.57866 0.0933-0.26134 0.0373-0.48534 0.0933-0.20533 0.056-0.29866 0.0933v8.064zm-5.8864-9.7067h3.6773v1.456h-3.6773v4.48q0 0.728 0.112 1.2133 0.112 0.46666 0.336 0.74666 0.224 0.26134 0.56 0.37334t0.784 0.112q0.784 0 1.2507-0.168 0.48533-0.18667 0.672-0.26134l0.336 1.4373q-0.26134 0.13066-0.91467 0.31733-0.65333 0.20533-1.4933 0.20533-0.98934 0-1.6427-0.24266-0.63467-0.26134-1.0267-0.76534t-0.56-1.232q-0.14933-0.74666-0.14933-1.7173v-8.6613l1.736-0.29867zm-8.3685 4.8533q0 1.1573-0.336 2.0907-0.336 0.93334-0.952 1.6053-0.59733 0.672-1.4373 1.0453-0.84 0.35467-1.8293 0.35467-0.98933 0-1.8293-0.35467-0.84-0.37333-1.456-1.0453-0.59733-0.672-0.93333-1.6053-0.336-0.93333-0.336-2.0907 0-1.1387 0.336-2.072 0.336-0.952 0.93333-1.624 0.616-0.672 1.456-1.0267 0.84-0.37333 1.8293-0.37333 0.98934 0 1.8293 0.37333 0.84 0.35467 1.4373 1.0267 0.616 0.672 0.952 1.624 0.336 0.93333 0.336 2.072zm-1.8107 0q0-1.6427-0.74666-2.5947-0.728-0.97067-1.9973-0.97067-1.2693 0-2.016 0.97067-0.728 0.952-0.728 2.5947 0 1.6427 0.728 2.6133 0.74667 0.952 2.016 0.952 1.2693 0 1.9973-0.952 0.74666-0.97067 0.74666-2.6133zm-12.389-4.8533h3.6773v1.456h-3.6773v4.48q0 0.728 0.112 1.2133 0.112 0.46666 0.336 0.74666 0.224 0.26134 0.56 0.37334t0.784 0.112q0.784 0 1.2507-0.168 0.48533-0.18667 0.672-0.26134l0.336 1.4373q-0.26134 0.13066-0.91467 0.31733-0.65333 0.20533-1.4933 0.20533-0.98934 0-1.6427-0.24266-0.63467-0.26134-1.0267-0.76534t-0.56-1.232q-0.14933-0.74666-0.14933-1.7173v-8.6613l1.736-0.29867zm-16.645 0.28q0.59733-0.14933 1.5867-0.31733 0.98934-0.168 2.2773-0.168 1.1573 0 1.9227 0.336 0.76534 0.31733 1.2133 0.91467 0.46666 0.57866 0.65333 1.4 0.18667 0.82133 0.18667 1.8107v5.4507h-1.736v-5.0773q0-0.896-0.13067-1.5307-0.112-0.63467-0.392-1.0267t-0.74667-0.56q-0.46666-0.18666-1.1573-0.18666-0.28 0-0.57867 0.0187-0.29866 0.0187-0.57866 0.056-0.26134 0.0187-0.48534 0.056-0.20533 0.0373-0.29866 0.056v8.1947h-1.736zm-2.4424 4.5733q0 1.1573-0.336 2.0907-0.336 0.93334-0.952 1.6053-0.59733 0.672-1.4373 1.0453-0.84 0.35467-1.8293 0.35467-0.98933 0-1.8293-0.35467-0.84-0.37333-1.456-1.0453-0.59733-0.672-0.93333-1.6053-0.336-0.93333-0.336-2.0907 0-1.1387 0.336-2.072 0.336-0.952 0.93333-1.624 0.616-0.672 1.456-1.0267 0.84-0.37333 1.8293-0.37333 0.98934 0 1.8293 0.37333 0.84 0.35467 1.4373 1.0267 0.616 0.672 0.952 1.624 0.336 0.93333 0.336 2.072zm-1.8107 0q0-1.6427-0.74666-2.5947-0.728-0.97067-1.9973-0.97067-1.2693 0-2.016 0.97067-0.728 0.952-0.728 2.5947 0 1.6427 0.728 2.6133 0.74667 0.952 2.016 0.952 1.2693 0 1.9973-0.952 0.74666-0.97067 0.74666-2.6133zm-9.7609 4.8533h-1.736v-9.7067h1.736zm-0.87734-11.461q-0.46666 0-0.80266-0.29867-0.31734-0.31733-0.31734-0.84t0.31734-0.82133q0.336-0.31734 0.80266-0.31734 0.46667 0 0.784 0.31734 0.336 0.29866 0.336 0.82133t-0.336 0.84q-0.31733 0.29867-0.784 0.29867zm-6.7451 1.7547h3.6773v1.456h-3.6773v4.48q0 0.728 0.112 1.2133 0.112 0.46666 0.336 0.74666 0.224 0.26134 0.56 0.37334t0.784 0.112q0.784 0 1.2507-0.168 0.48533-0.18667 0.672-0.26134l0.336 1.4373q-0.26134 0.13066-0.91467 0.31733-0.65333 0.20533-1.4933 0.20533-0.98934 0-1.6427-0.24266-0.63467-0.26134-1.0267-0.76534t-0.56-1.232q-0.14933-0.74666-0.14933-1.7173v-8.6613l1.736-0.29867zm-4.6148 9.4267q-0.59733 0.14933-1.5867 0.31733-0.97066 0.168-2.2587 0.168-1.12 0-1.8853-0.31733-0.76533-0.336-1.232-0.93333-0.46666-0.59734-0.672-1.4-0.20533-0.82134-0.20533-1.8107v-5.4507h1.736v5.0773q0 1.7733 0.56 2.5387 0.56 0.76534 1.8853 0.76534 0.28 0 0.57867-0.0187t0.56-0.0373q0.26133-0.0373 0.46667-0.056 0.224-0.0373 0.31733-0.0747v-8.1947h1.736zm-9.9202 0.46667q-1.6053-0.0373-2.2773-0.69067-0.672-0.65333-0.672-2.0347v-11.648l1.736-0.29866v11.667q0 0.42934 0.0747 0.70934t0.24266 0.448q0.168 0.168 0.448 0.26133 0.28 0.0747 0.69067 0.13067zm-5.3544-5.04q0 1.1573-0.336 2.0907-0.336 0.93334-0.952 1.6053-0.59733 0.672-1.4373 1.0453-0.84 0.35467-1.8293 0.35467-0.98934 0-1.8293-0.35467-0.84-0.37333-1.456-1.0453-0.59733-0.672-0.93333-1.6053-0.336-0.93333-0.336-2.0907 0-1.1387 0.336-2.072 0.336-0.952 0.93333-1.624 0.616-0.672 1.456-1.0267 0.84-0.37333 1.8293-0.37333 0.98933 0 1.8293 0.37333 0.84 0.35467 1.4373 1.0267 0.616 0.672 0.952 1.624 0.336 0.93333 0.336 2.072zm-1.8107 0q0-1.6427-0.74667-2.5947-0.728-0.97067-1.9973-0.97067-1.2693 0-2.016 0.97067-0.728 0.952-0.728 2.5947 0 1.6427 0.728 2.6133 0.74666 0.952 2.016 0.952 1.2693 0 1.9973-0.952 0.74667-0.97067 0.74667-2.6133zm-12.811 3.6027q1.064 0 1.568-0.28 0.52267-0.28 0.52267-0.896 0-0.63466-0.504-1.008-0.504-0.37333-1.6613-0.84-0.56-0.224-1.0827-0.448-0.504-0.24266-0.87734-0.56-0.37333-0.31733-0.59733-0.76533t-0.224-1.1013q0-1.288 0.952-2.0347 0.952-0.76533 2.5947-0.76533 0.41066 0 0.82133 0.056 0.41067 0.0373 0.76533 0.112 0.35467 0.056 0.616 0.13066 0.28 0.0747 0.42934 0.13067l-0.31734 1.4933q-0.28-0.14933-0.87733-0.29866-0.59733-0.168-1.4373-0.168-0.728 0-1.2693 0.29866-0.54133 0.28-0.54133 0.896 0 0.31734 0.112 0.56 0.13067 0.24267 0.37333 0.448 0.26134 0.18667 0.63467 0.35467t0.896 0.35467q0.69067 0.26133 1.232 0.52266 0.54133 0.24267 0.91467 0.57867 0.392 0.336 0.59733 0.82133 0.20533 0.46667 0.20533 1.1573 0 1.344-1.008 2.0347-0.98933 0.69067-2.8373 0.69067-1.288 0-2.016-0.224-0.728-0.20533-0.98933-0.31733l0.31733-1.4933q0.29867 0.112 0.952 0.336t1.736 0.224zm-13.01 0q0.616 0 1.0827-0.0187 0.48534-0.0373 0.80267-0.112v-2.8933q-0.18667-0.0933-0.616-0.14933-0.41067-0.0747-1.008-0.0747-0.392 0-0.84 0.056-0.42933 0.056-0.80267 0.24267-0.35466 0.168-0.59733 0.48533-0.24267 0.29867-0.24267 0.80267 0 0.93333 0.59734 1.3067 0.59733 0.35466 1.624 0.35466zm-0.14934-8.6987q1.0453 0 1.7547 0.28 0.728 0.26133 1.1573 0.76533 0.448 0.48533 0.63467 1.176 0.18667 0.672 0.18667 1.4933v6.0667q-0.224 0.0373-0.63467 0.112-0.392 0.056-0.896 0.112t-1.1013 0.0933q-0.57867 0.056-1.1573 0.056-0.82133 0-1.512-0.168-0.69066-0.168-1.1947-0.52266-0.504-0.37334-0.784-0.97067t-0.28-1.4373q0-0.80267 0.31733-1.3813 0.336-0.57866 0.896-0.93333t1.3067-0.52267q0.74666-0.168 1.568-0.168 0.26133 0 0.54133 0.0373 0.28 0.0187 0.52267 0.0747 0.26133 0.0373 0.448 0.0747 0.18666 0.0373 0.26133 0.056v-0.48533q0-0.42934-0.0933-0.84-0.0933-0.42934-0.336-0.74667-0.24267-0.336-0.672-0.52267-0.41067-0.20533-1.0827-0.20533-0.85867 0-1.512 0.13067-0.63467 0.112-0.952 0.24266l-0.20533-1.4373q0.336-0.14933 1.12-0.28 0.784-0.14933 1.6987-0.14933zm-11.073 0.0373q0.224 0 0.504 0.0373 0.29866 0.0187 0.57866 0.0747 0.28 0.0373 0.504 0.0933 0.24267 0.0373 0.35467 0.0747l-0.29867 1.512q-0.20533-0.0747-0.69066-0.168-0.46667-0.112-1.2133-0.112-0.48533 0-0.97066 0.112-0.46667 0.0933-0.616 0.13067v8.1573h-1.736v-9.296q0.616-0.224 1.5307-0.41067 0.91467-0.20533 2.0533-0.20533zm-6.0264 5.0587q0 1.1573-0.336 2.0907-0.336 0.93334-0.952 1.6053-0.59733 0.672-1.4373 1.0453-0.84 0.35467-1.8293 0.35467-0.98933 0-1.8293-0.35467-0.84-0.37333-1.456-1.0453-0.59733-0.672-0.93333-1.6053-0.336-0.93333-0.336-2.0907 0-1.1387 0.336-2.072 0.336-0.952 0.93333-1.624 0.616-0.672 1.456-1.0267 0.84-0.37333 1.8293-0.37333 0.98934 0 1.8293 0.37333 0.84 0.35467 1.4373 1.0267 0.616 0.672 0.952 1.624 0.336 0.93333 0.336 2.072zm-1.8107 0q0-1.6427-0.74666-2.5947-0.728-0.97067-1.9973-0.97067-1.2693 0-2.016 0.97067-0.728 0.952-0.728 2.5947 0 1.6427 0.728 2.6133 0.74667 0.952 2.016 0.952 1.2693 0 1.9973-0.952 0.74666-0.97067 0.74666-2.6133zm-10.187-9.632q0.76534 0 1.3067 0.112 0.56 0.112 0.784 0.20533l-0.31733 1.4933q-0.224-0.112-0.63467-0.20533-0.41067-0.112-1.008-0.112-1.2133 0-1.6987 0.672-0.48533 0.65333-0.48533 1.7733v0.84h3.7333v1.456h-3.7333v8.2507h-1.736v-10.584q0-1.8667 0.91467-2.8747 0.91466-1.0267 2.8747-1.0267zm-12.798 13.515q-0.224 0.14934-0.87733 0.392-0.63467 0.224-1.4933 0.224-0.87734 0-1.6613-0.28-0.76533-0.28-1.344-0.85866-0.57866-0.59734-0.91466-1.4747t-0.336-2.0907q0-1.064 0.31733-1.9413 0.31733-0.896 0.91467-1.5307 0.616-0.65333 1.4933-1.008 0.87733-0.37333 1.9787-0.37333 1.2133 0 2.1093 0.18667 0.91467 0.168 1.5307 0.31733v8.6613q0 2.24-1.1573 3.248-1.1573 1.008-3.5093 1.008-0.91467 0-1.736-0.14933-0.80267-0.14933-1.4-0.35467l0.31733-1.512q0.52267 0.20534 1.2693 0.35467 0.76533 0.168 1.5867 0.168 1.5493 0 2.2213-0.616 0.69066-0.616 0.69066-1.96zm-0.0187-7.2053q-0.26134-0.0747-0.70934-0.13067-0.42933-0.0747-1.176-0.0747-1.4 0-2.1653 0.91466-0.74667 0.91467-0.74667 2.4267 0 0.84 0.20534 1.4373 0.224 0.59734 0.57866 0.98934 0.37334 0.392 0.84 0.57866 0.48534 0.18667 0.98934 0.18667 0.69066 0 1.2693-0.18667 0.57867-0.20533 0.91467-0.46666zm-16.785-1.2507q0.59733-0.14933 1.5867-0.31733 0.98933-0.168 2.2773-0.168 1.1573 0 1.9227 0.336 0.76533 0.31733 1.2133 0.91467 0.46667 0.57866 0.65333 1.4 0.18667 0.82133 0.18667 1.8107v5.4507h-1.736v-5.0773q0-0.896-0.13067-1.5307-0.112-0.63467-0.392-1.0267t-0.74666-0.56q-0.46667-0.18666-1.1573-0.18666-0.28 0-0.57866 0.0187-0.29867 0.0187-0.57867 0.056-0.26133 0.0187-0.48533 0.056-0.20534 0.0373-0.29867 0.056v8.1947h-1.736zm-3.0036 9.4267h-1.736v-9.7067h1.736zm-0.87734-11.461q-0.46666 0-0.80266-0.29867-0.31734-0.31733-0.31734-0.84t0.31734-0.82133q0.336-0.31734 0.80266-0.31734 0.46667 0 0.784 0.31734 0.336 0.29866 0.336 0.82133t-0.336 0.84q-0.31733 0.29867-0.784 0.29867zm-7.0837 6.1227q0.56 0.42934 1.176 1.064 0.63467 0.63467 1.232 1.3813 0.616 0.728 1.1573 1.4933 0.54133 0.74667 0.91466 1.4h-2.0347q-0.392-0.65333-0.91467-1.3253-0.504-0.69067-1.064-1.3067-0.56-0.63467-1.1387-1.1573-0.57866-0.52267-1.1013-0.87734v4.6667h-1.736v-14.187l1.736-0.29866v8.848q0.448-0.448 0.98933-0.98934 0.54134-0.54133 1.064-1.1013 0.52267-0.56 0.98934-1.064 0.46666-0.52267 0.80266-0.91467h2.0347q-0.42933 0.46667-0.93333 1.0267t-1.0453 1.1387q-0.54133 0.56-1.1013 1.1387-0.54133 0.56-1.0267 1.064zm-7.9677 5.5627q-1.176 0-2.072-0.37333-0.87733-0.37334-1.4933-1.0453-0.59734-0.672-0.896-1.5867-0.29867-0.93334-0.29867-2.0533t0.31733-2.0533q0.336-0.93333 0.93334-1.6053 0.59733-0.69067 1.456-1.064 0.87733-0.392 1.9413-0.392 0.65333 0 1.3067 0.112 0.65333 0.112 1.2507 0.35466l-0.392 1.4747q-0.392-0.18667-0.91466-0.29867-0.504-0.112-1.0827-0.112-1.456 0-2.24 0.91467-0.76533 0.91467-0.76533 2.6693 0 0.784 0.168 1.4373 0.18666 0.65333 0.56 1.12 0.392 0.46666 0.98933 0.728 0.59733 0.24266 1.456 0.24266 0.69067 0 1.2507-0.13066 0.56-0.13067 0.87733-0.28l0.24267 1.456q-0.14934 0.0933-0.42934 0.18666-0.28 0.0747-0.63466 0.13067-0.35467 0.0747-0.76534 0.112-0.392 0.056-0.76533 0.056zm-15.187-5.0587q0-1.288 0.37333-2.24 0.37334-0.97066 0.98934-1.6053t1.4187-0.952q0.80267-0.31733 1.6427-0.31733 1.96 0 3.0053 1.232 1.0453 1.2133 1.0453 3.7147 0 0.112 0 0.29867 0 0.168-0.0187 0.31733h-6.6453q0.112 1.512 0.87733 2.296t2.3893 0.784q0.91467 0 1.5307-0.14933 0.63467-0.168 0.952-0.31733l0.24267 1.456q-0.31734 0.168-1.12 0.35466-0.784 0.18667-1.792 0.18667-1.2693 0-2.2027-0.37333-0.91467-0.392-1.512-1.064t-0.896-1.5867q-0.28-0.93333-0.28-2.0347zm6.664-0.952q0.0187-1.176-0.59733-1.9227-0.59734-0.76534-1.6613-0.76534-0.59733 0-1.064 0.24267-0.448 0.224-0.76533 0.59733-0.31733 0.37334-0.504 0.85867-0.168 0.48533-0.224 0.98933zm-16.768 5.7867v-14.187l1.736-0.29866v4.9653q0.48533-0.18667 1.0267-0.28 0.56-0.112 1.1013-0.112 1.1573 0 1.9227 0.336 0.76534 0.31733 1.2133 0.91467 0.46666 0.57866 0.65333 1.4 0.18667 0.82133 0.18667 1.8107v5.4507h-1.736v-5.0773q0-0.896-0.13067-1.5307-0.112-0.63467-0.392-1.0267t-0.74667-0.56q-0.46666-0.18666-1.1573-0.18666-0.28 0-0.57867 0.0373-0.29866 0.0373-0.57866 0.0933-0.26134 0.0373-0.48534 0.0933-0.20533 0.056-0.29866 0.0933v8.064zm-4.4584 0.224q-1.176 0-2.072-0.37333-0.87733-0.37334-1.4933-1.0453-0.59734-0.672-0.896-1.5867-0.29867-0.93334-0.29867-2.0533t0.31733-2.0533q0.336-0.93333 0.93334-1.6053 0.59733-0.69067 1.456-1.064 0.87733-0.392 1.9413-0.392 0.65333 0 1.3067 0.112 0.65333 0.112 1.2507 0.35466l-0.392 1.4747q-0.392-0.18667-0.91466-0.29867-0.504-0.112-1.0827-0.112-1.456 0-2.24 0.91467-0.76533 0.91467-0.76533 2.6693 0 0.784 0.168 1.4373 0.18666 0.65333 0.56 1.12 0.392 0.46666 0.98933 0.728 0.59733 0.24266 1.456 0.24266 0.69067 0 1.2507-0.13066 0.56-0.13067 0.87733-0.28l0.24267 1.456q-0.14934 0.0933-0.42934 0.18666-0.28 0.0747-0.63466 0.13067-0.35467 0.0747-0.76534 0.112-0.392 0.056-0.76533 0.056zm-14.575-1.4747q1.064 0 1.568-0.28 0.52267-0.28 0.52267-0.896 0-0.63466-0.504-1.008-0.504-0.37333-1.6613-0.84-0.56-0.224-1.0827-0.448-0.504-0.24266-0.87734-0.56-0.37333-0.31733-0.59733-0.76533t-0.224-1.1013q0-1.288 0.952-2.0347 0.952-0.76533 2.5947-0.76533 0.41066 0 0.82133 0.056 0.41067 0.0373 0.76533 0.112 0.35467 0.056 0.616 0.13066 0.28 0.0747 0.42934 0.13067l-0.31734 1.4933q-0.28-0.14933-0.87733-0.29866-0.59733-0.168-1.4373-0.168-0.728 0-1.2693 0.29866-0.54133 0.28-0.54133 0.896 0 0.31734 0.112 0.56 0.13067 0.24267 0.37333 0.448 0.26134 0.18667 0.63467 0.35467t0.896 0.35467q0.69067 0.26133 1.232 0.52266 0.54133 0.24267 0.91467 0.57867 0.392 0.336 0.59733 0.82133 0.20533 0.46667 0.20533 1.1573 0 1.344-1.008 2.0347-0.98933 0.69067-2.8373 0.69067-1.288 0-2.016-0.224-0.728-0.20533-0.98933-0.31733l0.31733-1.4933q0.29867 0.112 0.952 0.336t1.736 0.224zm-5.2622 1.2507h-1.736v-9.7067h1.736zm-0.87734-11.461q-0.46666 0-0.80266-0.29867-0.31734-0.31733-0.31734-0.84t0.31734-0.82133q0.336-0.31734 0.80266-0.31734 0.46667 0 0.784 0.31734 0.336 0.29866 0.336 0.82133t-0.336 0.84q-0.31733 0.29867-0.784 0.29867zm-21.239 2.0347q0.59733-0.14933 1.568-0.31733 0.98933-0.168 2.2773-0.168 0.93333 0 1.568 0.26133 0.63467 0.24267 1.064 0.728 0.13067-0.0933 0.41067-0.26133 0.28-0.168 0.69066-0.31733 0.41067-0.168 0.91467-0.28 0.504-0.13067 1.0827-0.13067 1.12 0 1.8293 0.336 0.70933 0.31733 1.1013 0.91467 0.41067 0.59733 0.54134 1.4187 0.14933 0.82134 0.14933 1.792v5.4507h-1.736v-5.0773q0-0.85867-0.0933-1.4747-0.0747-0.616-0.31734-1.0267-0.224-0.41066-0.63466-0.59733-0.392-0.20533-1.0267-0.20533-0.87733 0-1.456 0.24266-0.56 0.224-0.76533 0.41067 0.14933 0.48533 0.224 1.064 0.0747 0.57867 0.0747 1.2133v5.4507h-1.736v-5.0773q0-0.85867-0.0933-1.4747t-0.336-1.0267q-0.224-0.41066-0.63467-0.59733-0.392-0.20533-1.008-0.20533-0.26133 0-0.56 0.0187-0.29866 0.0187-0.57866 0.056-0.26134 0.0187-0.48534 0.056t-0.29866 0.056v8.1947h-1.736zm-10.968 4.592q0-1.288 0.37333-2.24 0.37333-0.97066 0.98933-1.6053t1.4187-0.952 1.6427-0.31733q1.96 0 3.0053 1.232 1.0453 1.2133 1.0453 3.7147 0 0.112 0 0.29867 0 0.168-0.0187 0.31733h-6.6453q0.112 1.512 0.87734 2.296 0.76533 0.784 2.3893 0.784 0.91467 0 1.5307-0.14933 0.63466-0.168 0.952-0.31733l0.24266 1.456q-0.31733 0.168-1.12 0.35466-0.784 0.18667-1.792 0.18667-1.2693 0-2.2027-0.37333-0.91467-0.392-1.512-1.064-0.59734-0.672-0.896-1.5867-0.28-0.93333-0.28-2.0347zm6.664-0.952q0.0187-1.176-0.59734-1.9227-0.59733-0.76534-1.6613-0.76534-0.59733 0-1.064 0.24267-0.448 0.224-0.76533 0.59733-0.31734 0.37334-0.504 0.85867-0.168 0.48533-0.224 0.98933zm-11.827-3.92h3.6773v1.456h-3.6773v4.48q0 0.728 0.112 1.2133 0.112 0.46666 0.336 0.74666 0.224 0.26134 0.56 0.37334t0.784 0.112q0.784 0 1.2507-0.168 0.48533-0.18667 0.672-0.26134l0.336 1.4373q-0.26133 0.13066-0.91467 0.31733-0.65333 0.20533-1.4933 0.20533-0.98933 0-1.6427-0.24266-0.63466-0.26134-1.0267-0.76534t-0.56-1.232q-0.14934-0.74666-0.14934-1.7173v-8.6613l1.736-0.29867zm-7.6778 8.456q1.064 0 1.568-0.28 0.52267-0.28 0.52267-0.896 0-0.63466-0.504-1.008-0.504-0.37333-1.6613-0.84-0.56-0.224-1.0827-0.448-0.504-0.24266-0.87734-0.56-0.37333-0.31733-0.59733-0.76533t-0.224-1.1013q0-1.288 0.952-2.0347 0.952-0.76533 2.5947-0.76533 0.41066 0 0.82133 0.056 0.41067 0.0373 0.76533 0.112 0.35467 0.056 0.616 0.13066 0.28 0.0747 0.42934 0.13067l-0.31734 1.4933q-0.28-0.14933-0.87733-0.29866-0.59733-0.168-1.4373-0.168-0.728 0-1.2693 0.29866-0.54133 0.28-0.54133 0.896 0 0.31734 0.112 0.56 0.13067 0.24267 0.37333 0.448 0.26134 0.18667 0.63467 0.35467t0.896 0.35467q0.69067 0.26133 1.232 0.52266 0.54133 0.24267 0.91467 0.57867 0.392 0.336 0.59733 0.82133 0.20533 0.46667 0.20533 1.1573 0 1.344-1.008 2.0347-0.98933 0.69067-2.8373 0.69067-1.288 0-2.016-0.224-0.728-0.20533-0.98933-0.31733l0.31733-1.4933q0.29867 0.112 0.952 0.336t1.736 0.224zm-12.658 3.0613q0.20533 0.0933 0.52267 0.168 0.336 0.0933 0.65333 0.0933 1.0267 0 1.6053-0.46667 0.57867-0.448 1.0453-1.4747-1.176-2.24-2.2027-4.7413-1.008-2.52-1.68-5.096h1.8667q0.20533 0.84 0.48533 1.8107 0.29867 0.97067 0.65333 1.9973 0.35467 1.0267 0.76534 2.0533 0.41066 1.0267 0.85866 1.9787 0.70934-1.96 1.232-3.8827 0.52267-1.9227 0.98934-3.9573h1.792q-0.672 2.744-1.4933 5.2827-0.82133 2.52-1.7733 4.7227-0.37333 0.84-0.784 1.4373-0.392 0.616-0.87733 1.008-0.48534 0.392-1.1013 0.57867-0.59733 0.18666-1.3627 0.18666-0.20533 0-0.42933-0.0373-0.224-0.0187-0.448-0.0747-0.20533-0.0373-0.392-0.0933-0.168-0.056-0.24267-0.0933zm-4.9152-3.0613q1.064 0 1.568-0.28 0.52267-0.28 0.52267-0.896 0-0.63466-0.504-1.008-0.504-0.37333-1.6613-0.84-0.56-0.224-1.0827-0.448-0.504-0.24266-0.87733-0.56-0.37333-0.31733-0.59733-0.76533t-0.224-1.1013q0-1.288 0.952-2.0347 0.952-0.76533 2.5947-0.76533 0.41067 0 0.82133 0.056 0.41067 0.0373 0.76533 0.112 0.35467 0.056 0.616 0.13066 0.28 0.0747 0.42933 0.13067l-0.31733 1.4933q-0.28-0.14933-0.87733-0.29866-0.59733-0.168-1.4373-0.168-0.728 0-1.2693 0.29866-0.54133 0.28-0.54133 0.896 0 0.31734 0.112 0.56 0.13067 0.24267 0.37333 0.448 0.26133 0.18667 0.63467 0.35467 0.37333 0.168 0.896 0.35467 0.69067 0.26133 1.232 0.52266 0.54133 0.24267 0.91467 0.57867 0.392 0.336 0.59733 0.82133 0.20533 0.46667 0.20533 1.1573 0 1.344-1.008 2.0347-0.98933 0.69067-2.8373 0.69067-1.288 0-2.016-0.224-0.728-0.20533-0.98933-0.31733l0.31733-1.4933q0.29867 0.112 0.952 0.336 0.65333 0.224 1.736 0.224zm-17.529-3.584q0-1.288 0.37333-2.24 0.37333-0.97066 0.98933-1.6053t1.4187-0.952q0.80267-0.31733 1.6427-0.31733 1.96 0 3.0053 1.232 1.0453 1.2133 1.0453 3.7147 0 0.112 0 0.29867 0 0.168-0.01867 0.31733h-6.6453q0.112 1.512 0.87733 2.296 0.76533 0.784 2.3893 0.784 0.91467 0 1.5307-0.14933 0.63467-0.168 0.952-0.31733l0.24267 1.456q-0.31733 0.168-1.12 0.35466-0.784 0.18667-1.792 0.18667-1.2693 0-2.2027-0.37333-0.91467-0.392-1.512-1.064-0.59733-0.672-0.896-1.5867-0.28-0.93333-0.28-2.0347zm6.664-0.952q0.01867-1.176-0.59733-1.9227-0.59733-0.76534-1.6613-0.76534-0.59733 0-1.064 0.24267-0.448 0.224-0.76533 0.59733-0.31733 0.37334-0.504 0.85867-0.168 0.48533-0.224 0.98933zm-16.768 5.7867v-14.187l1.736-0.29866v4.9653q0.48533-0.18667 1.0267-0.28 0.56-0.112 1.1013-0.112 1.1573 0 1.9227 0.336 0.76533 0.31733 1.2133 0.91467 0.46667 0.57866 0.65333 1.4 0.18667 0.82133 0.18667 1.8107v5.4507h-1.736v-5.0773q0-0.896-0.13067-1.5307-0.112-0.63467-0.392-1.0267t-0.74667-0.56q-0.46667-0.18666-1.1573-0.18666-0.28 0-0.57867 0.0373-0.29867 0.0373-0.57867 0.0933-0.26133 0.0373-0.48533 0.0933-0.20533 0.056-0.29867 0.0933v8.064zm-1.7818-12.936v1.568h-4.0693v11.368h-1.8107v-11.368h-4.0693v-1.568z"/>
	</g>
	<rect x="462.26" y="234.18" width="93.528" height="27.347" ry="6.1171" fill="url(#b)" opacity=".98" stroke="#2683e7" stroke-linecap="round" stroke-linejoin="round" stroke-width="2.4623" style="paint-order:normal"/>
	<path
		d="m530.31 253.58q-1.2613-0.0293-1.7893-0.54267-0.528-0.51333-0.528-1.5987v-9.152l1.364-0.23466v9.1667q0 0.33734 0.0587 0.55734t0.19067 0.352q0.132 0.132 0.352 0.20533 0.22 0.0587 0.54266 0.10267zm-10.906-3.9453q0-1.012 0.29334-1.76 0.29333-0.76266 0.77733-1.2613t1.1147-0.748q0.63066-0.24933 1.2907-0.24933 1.54 0 2.3613 0.968 0.82133 0.95333 0.82133 2.9187 0 0.088 0 0.23467 0 0.132-0.0147 0.24933h-5.2213q0.088 1.188 0.68933 1.804 0.60134 0.616 1.8773 0.616 0.71866 0 1.2027-0.11733 0.49867-0.132 0.748-0.24933l0.19067 1.144q-0.24933 0.132-0.88 0.27866-0.616 0.14667-1.408 0.14667-0.99733 0-1.7307-0.29333-0.71866-0.308-1.188-0.836-0.46933-0.528-0.704-1.2467-0.22-0.73333-0.22-1.5987zm5.236-0.748q0.0147-0.924-0.46933-1.5107-0.46933-0.60134-1.3053-0.60134-0.46934 0-0.836 0.19067-0.352 0.176-0.60134 0.46933-0.24933 0.29334-0.396 0.67467-0.132 0.38133-0.176 0.77733zm-8.3137 4.7227q-0.924 0-1.628-0.29333-0.68934-0.29334-1.1733-0.82134-0.46933-0.528-0.704-1.2467-0.23466-0.73334-0.23466-1.6133t0.24933-1.6133q0.264-0.73333 0.73333-1.2613 0.46934-0.54267 1.144-0.836 0.68934-0.308 1.5253-0.308 0.51333 0 1.0267 0.088 0.51334 0.088 0.98267 0.27866l-0.308 1.1587q-0.308-0.14667-0.71867-0.23467-0.396-0.088-0.85066-0.088-1.144 0-1.76 0.71867-0.60134 0.71867-0.60134 2.0973 0 0.616 0.132 1.1293 0.14667 0.51333 0.44 0.88 0.308 0.36666 0.77734 0.572 0.46933 0.19066 1.144 0.19066 0.54266 0 0.98266-0.10266 0.44-0.10267 0.68934-0.22l0.19066 1.144q-0.11733 0.0733-0.33733 0.14666-0.22 0.0587-0.49867 0.10267-0.27866 0.0587-0.60133 0.088-0.308 0.044-0.60133 0.044zm-11.737-7.5827q0.46934-0.11733 1.2467-0.24933t1.7893-0.132q0.90934 0 1.5107 0.264 0.60133 0.24933 0.95333 0.71867 0.36667 0.45466 0.51334 1.1 0.14666 0.64533 0.14666 1.4227v4.2827h-1.364v-3.9893q0-0.704-0.10266-1.2027-0.088-0.49867-0.308-0.80667t-0.58667-0.44q-0.36667-0.14666-0.90933-0.14666-0.22 0-0.45467 0.0147t-0.45467 0.044q-0.20533 0.0147-0.38133 0.044-0.16133 0.0293-0.23467 0.044v6.4387h-1.364zm-5.0671 6.424q0.484 0 0.85067-0.0147 0.38133-0.0293 0.63066-0.088v-2.2733q-0.14666-0.0733-0.484-0.11733-0.32266-0.0587-0.792-0.0587-0.308 0-0.66 0.044-0.33733 0.044-0.63066 0.19067-0.27867 0.132-0.46934 0.38133-0.19066 0.23467-0.19066 0.63067 0 0.73333 0.46933 1.0267 0.46933 0.27866 1.276 0.27866zm-0.11733-6.8347q0.82133 0 1.3787 0.22 0.572 0.20533 0.90934 0.60133 0.352 0.38133 0.49866 0.924 0.14667 0.528 0.14667 1.1733v4.7667q-0.176 0.0293-0.49867 0.088-0.308 0.044-0.704 0.088t-0.86533 0.0733q-0.45467 0.044-0.90933 0.044-0.64534 0-1.188-0.132-0.54267-0.132-0.93867-0.41066-0.396-0.29334-0.616-0.76267t-0.22-1.1293q0-0.63067 0.24933-1.0853 0.264-0.45466 0.704-0.73333t1.0267-0.41067 1.232-0.132q0.20533 0 0.42533 0.0293 0.22 0.0147 0.41067 0.0587 0.20533 0.0293 0.352 0.0587 0.14667 0.0293 0.20533 0.044v-0.38133q0-0.33734-0.0733-0.66-0.0733-0.33734-0.264-0.58667-0.19067-0.264-0.528-0.41067-0.32267-0.16133-0.85067-0.16133-0.67466 0-1.188 0.10267-0.49866 0.088-0.748 0.19066l-0.16133-1.1293q0.264-0.11733 0.88-0.22 0.616-0.11733 1.3347-0.11733zm-7.0861 8.0373q-1.0707 0-1.9507-0.352t-1.5107-1.0267q-0.63067-0.67466-0.98267-1.6573-0.33733-0.99733-0.33733-2.2733t0.38133-2.2587q0.396-0.99733 1.056-1.672t1.54-1.0267 1.8773-0.352q0.63066 0 1.1293 0.088 0.51333 0.088 0.88 0.20534 0.38133 0.11733 0.616 0.23466 0.23467 0.11734 0.32267 0.176l-0.41067 1.1733q-0.132-0.088-0.38133-0.19067-0.24934-0.10267-0.572-0.20533-0.308-0.10267-0.68934-0.16134-0.36666-0.0733-0.748-0.0733-0.80666 0-1.452 0.27867-0.64533 0.27866-1.1 0.80666-0.45466 0.528-0.704 1.2907-0.23466 0.748-0.23466 1.6867 0 0.90933 0.20533 1.6573 0.22 0.748 0.64533 1.2907 0.42534 0.528 1.056 0.82133 0.64534 0.29333 1.496 0.29333 0.98267 0 1.628-0.20533 0.64534-0.20533 0.968-0.36667l0.36667 1.1733q-0.10267 0.0733-0.36667 0.19066-0.264 0.10267-0.66 0.20534-0.396 0.10266-0.924 0.176-0.528 0.0733-1.144 0.0733z"/>
	<path
		d="m269.9 20.171q-0.20683 0.13789-0.81008 0.36195-0.58602 0.20683-1.3789 0.20683-0.81009 0-1.534-0.25854-0.70666-0.25853-1.241-0.79284-0.53431-0.55155-0.84455-1.3616-0.31025-0.81008-0.31025-1.9304 0-0.98244 0.29301-1.7925 0.293-0.82732 0.84455-1.4133 0.56878-0.60326 1.3789-0.93074 0.81008-0.34471 1.827-0.34471 1.1203 0 1.9476 0.17236 0.84456 0.15512 1.4133 0.293v7.9974q0 2.0683-1.0686 2.999-1.0686 0.93074-3.2403 0.93074-0.84456 0-1.6029-0.13789-0.74114-0.13789-1.2927-0.32748l0.293-1.3961q0.48261 0.1896 1.172 0.32748 0.70667 0.15512 1.465 0.15512 1.4306 0 2.0511-0.56878 0.63772-0.56878 0.63772-1.8098zm-0.0173-6.653q-0.2413-0.0689-0.65496-0.12065-0.39642-0.0689-1.0858-0.0689-1.2927 0-1.9994 0.84455-0.68944 0.84455-0.68944 2.2406 0 0.77561 0.1896 1.3272 0.20683 0.55154 0.53431 0.91349 0.34472 0.36195 0.77561 0.53431 0.44813 0.17236 0.9135 0.17236 0.63772 0 1.172-0.17236 0.53431-0.18959 0.84455-0.43089zm-15.499-1.1548q0.55154-0.13789 1.465-0.29301t2.1028-0.15512q1.0686 0 1.7753 0.31024 0.70667 0.29301 1.1203 0.84456 0.43089 0.53431 0.60325 1.2927t0.17236 1.6719v5.0328h-1.6029v-4.6881q0-0.82732-0.12065-1.4133-0.10342-0.58601-0.36195-0.94797-0.25854-0.36195-0.68943-0.51707-0.4309-0.17236-1.0686-0.17236-0.25854 0-0.53431 0.0172t-0.53431 0.0517q-0.2413 0.0172-0.44813 0.0517-0.1896 0.0345-0.27577 0.0517v7.5665h-1.6029zm-2.7734 8.7041h-1.6029v-8.9626h1.6029zm-0.81005-10.583q-0.43089 0-0.74113-0.27577-0.29301-0.29301-0.29301-0.77561t0.29301-0.75838q0.31024-0.29301 0.74113-0.29301 0.4309 0 0.72391 0.29301 0.31024 0.27578 0.31024 0.75838t-0.31024 0.77561q-0.29301 0.27577-0.72391 0.27577zm-6.5407 5.6533q0.51707 0.39642 1.0858 0.98243 0.58602 0.58602 1.1376 1.2754 0.56878 0.6722 1.0686 1.3789 0.49984 0.68943 0.84455 1.2927h-1.8787q-0.36195-0.60325-0.84455-1.2237-0.46536-0.63773-0.98244-1.2065-0.51707-0.58601-1.0514-1.0686-0.53431-0.4826-1.0169-0.81008v4.309h-1.6029v-13.099l1.6029-0.27578v8.1698q0.41366-0.41366 0.91349-0.91349 0.49984-0.49984 0.98244-1.0169 0.48261-0.51708 0.9135-0.98244 0.43089-0.48261 0.74114-0.84456h1.8787q-0.39643 0.4309-0.86179 0.94797-0.46537 0.51707-0.9652 1.0514-0.49984 0.51708-1.0169 1.0514-0.49985 0.51707-0.94797 0.98244zm-6.5965-4.2228q0.20683 0 0.46537 0.0345 0.27577 0.0172 0.5343 0.0689 0.25854 0.0345 0.46537 0.0862 0.22407 0.0345 0.32748 0.0689l-0.27577 1.3961q-0.1896-0.0689-0.63772-0.15513-0.4309-0.10341-1.1203-0.10341-0.44813 0-0.89626 0.10341-0.4309 0.0862-0.56878 0.12065v7.532h-1.6029v-8.5834q0.56878-0.20683 1.4133-0.37919 0.84456-0.18959 1.8959-0.18959zm-5.5645 4.6709q0 1.0686-0.31024 1.9304-0.31025 0.86179-0.87903 1.4823-0.55154 0.62049-1.3272 0.9652-0.77561 0.32748-1.6891 0.32748t-1.6891-0.32748q-0.77561-0.34471-1.3444-0.9652-0.55154-0.62049-0.86178-1.4823-0.31025-0.86179-0.31025-1.9304 0-1.0514 0.31025-1.9132 0.31024-0.87902 0.86178-1.4995 0.56878-0.62049 1.3444-0.94797 0.77561-0.34471 1.6891-0.34471t1.6891 0.34471q0.77561 0.32748 1.3272 0.94797 0.56878 0.62049 0.87903 1.4995 0.31024 0.86179 0.31024 1.9132zm-1.6719 0q0-1.5168-0.68943-2.3958-0.67219-0.89626-1.8442-0.89626-1.172 0-1.8615 0.89626-0.67219 0.87903-0.67219 2.3958 0 1.5167 0.67219 2.413 0.68944 0.87902 1.8615 0.87902 1.172 0 1.8442-0.87902 0.68943-0.89627 0.68943-2.413zm-12.11 4.4813q-0.48261-1.241-1.0342-2.8267-0.53431-1.6029-0.98244-3.3265-0.44813 1.7236-0.98244 3.3265-0.53431 1.5857-1.0169 2.8267h-1.3961q-0.79284-1.7753-1.5512-4.0504-0.75837-2.2751-1.4306-4.9122h1.7236q0.17235 0.81008 0.41366 1.758 0.2413 0.94797 0.49984 1.8959 0.27577 0.94797 0.56878 1.827 0.293 0.87903 0.55154 1.534 0.29301-0.81009 0.56878-1.7064 0.29301-0.91349 0.55155-1.827 0.25854-0.93073 0.4826-1.8098 0.2413-0.89626 0.41366-1.6719h1.3272q0.15512 0.77561 0.37918 1.6719 0.22407 0.87903 0.4826 1.8098 0.25854 0.9135 0.53431 1.827 0.29301 0.89626 0.58602 1.7064 0.25853-0.65496 0.53431-1.534 0.293-0.87902 0.56878-1.827 0.27577-0.94797 0.51707-1.8959t0.41366-1.758h1.6546q-0.6722 2.6371-1.4306 4.9122-0.75838 2.2751-1.5512 4.0504zm-15.673-7.0667q-0.29301-0.2413-0.84456-0.46537-0.55154-0.22406-1.2065-0.22406-0.68943 0-1.1893 0.25853-0.4826 0.24131-0.79285 0.68944-0.31024 0.43089-0.44813 1.0341t-0.13789 1.2927q0 1.5684 0.77561 2.4302 0.77561 0.84455 2.0683 0.84455 0.65496 0 1.0858-0.0517 0.44814-0.0689 0.68944-0.13788zm0-6.0325 1.6029-0.27578v13.116q-0.55154 0.15512-1.4133 0.31025-0.86179 0.15512-1.9821 0.15512-1.0342 0-1.8615-0.32748t-1.4133-0.93073q-0.58602-0.60326-0.9135-1.465-0.31024-0.87902-0.31024-1.9649 0-1.0342 0.25853-1.8959 0.27577-0.86179 0.79285-1.4823 0.51707-0.62049 1.2582-0.9652 0.75837-0.34472 1.7236-0.34472 0.77561 0 1.3616 0.20683 0.60326 0.20683 0.89627 0.39642zm-15.919 8.6351q0-1.1893 0.34471-2.0683 0.34472-0.89626 0.9135-1.4823t1.3099-0.87902q0.74114-0.29301 1.5168-0.29301 1.8098 0 2.775 1.1376 0.9652 1.1203 0.9652 3.4299 0 0.10341 0 0.27577 0 0.15512-0.0173 0.29301h-6.1359q0.10341 1.3961 0.81009 2.12 0.70666 0.7239 2.2062 0.7239 0.84456 0 1.4133-0.13788 0.58601-0.15512 0.87903-0.29301l0.22406 1.3444q-0.29301 0.15512-1.0342 0.32748-0.7239 0.17236-1.6546 0.17236-1.172 0-2.0338-0.34472-0.84456-0.36195-1.3961-0.98244-0.55155-0.62048-0.82732-1.465-0.25854-0.86179-0.25854-1.8787zm6.1532-0.87902q0.0173-1.0859-0.55155-1.7753-0.55154-0.70667-1.534-0.70667-0.55154 0-0.98244 0.22407-0.41366 0.20683-0.70666 0.55154-0.29302 0.34472-0.46537 0.79285-0.15512 0.44813-0.20683 0.9135zm-9.5976 0.87902q0-1.5685-0.77561-2.413t-2.0683-0.84455q-0.7239 0-1.1376 0.0517-0.39643 0.0517-0.63773 0.12065v5.6533q0.29301 0.2413 0.84456 0.46536 0.55154 0.22407 1.2065 0.22407 0.68943 0 1.172-0.2413 0.49983-0.25854 0.81008-0.68944 0.31024-0.44813 0.44812-1.0341 0.13789-0.60325 0.13789-1.2927zm1.6719 0q0 1.0169-0.27577 1.8787-0.25853 0.86179-0.77561 1.4823-0.51707 0.62049-1.2754 0.9652-0.74113 0.34472-1.7063 0.34472-0.77561 0-1.3789-0.20683-0.58602-0.20683-0.87903-0.39642v3.585h-1.6029v-11.875q0.56879-0.13788 1.4133-0.293 0.86179-0.17236 1.9821-0.17236 1.0342 0 1.8615 0.32748 0.82731 0.32748 1.4133 0.93073t0.89627 1.4823q0.32747 0.86179 0.32747 1.9476zm-11.838 0q0-1.5685-0.77561-2.413t-2.0683-0.84455q-0.7239 0-1.1376 0.0517-0.39642 0.0517-0.63772 0.12065v5.6533q0.29301 0.2413 0.84455 0.46536 0.55155 0.22407 1.2065 0.22407 0.68943 0 1.172-0.2413 0.49984-0.25854 0.81009-0.68944 0.31024-0.44813 0.44812-1.0341 0.13789-0.60325 0.13789-1.2927zm1.6719 0q0 1.0169-0.27577 1.8787-0.25854 0.86179-0.77561 1.4823-0.51708 0.62049-1.2754 0.9652-0.74114 0.34472-1.7063 0.34472-0.77561 0-1.3789-0.20683-0.58602-0.20683-0.87903-0.39642v3.585h-1.6029v-11.875q0.56879-0.13788 1.4133-0.293 0.8618-0.17236 1.9821-0.17236 1.0342 0 1.8615 0.32748 0.82731 0.32748 1.4133 0.93073 0.58601 0.60325 0.89626 1.4823 0.32748 0.86179 0.32748 1.9476zm-10.149-0.0172q0 1.0686-0.31024 1.9304t-0.87902 1.4823q-0.55155 0.62048-1.3272 0.9652-0.77561 0.32748-1.6891 0.32748-0.91349 0-1.6891-0.32748-0.77561-0.34472-1.3444-0.9652-0.55155-0.62049-0.86179-1.4823t-0.31024-1.9304q0-1.0514 0.31024-1.9132 0.31024-0.87902 0.86179-1.4995 0.56878-0.62049 1.3444-0.94797 0.77561-0.34472 1.6891-0.34472 0.9135 0 1.6891 0.34472 0.77561 0.32748 1.3272 0.94797 0.56878 0.62049 0.87902 1.4995 0.31024 0.86179 0.31024 1.9132zm-1.6719 0q0-1.5168-0.68943-2.3958-0.67219-0.89626-1.8442-0.89626-1.172 0-1.8615 0.89626-0.6722 0.87902-0.6722 2.3958t0.6722 2.413q0.68943 0.87903 1.8615 0.87903 1.172 0 1.8442-0.87903 0.68943-0.89626 0.68943-2.413zm-11.439-4.4813h3.3954v1.3444h-3.3954v4.1366q0 0.67219 0.10341 1.1203 0.10342 0.4309 0.31024 0.68943 0.20683 0.24131 0.51708 0.34472 0.31024 0.10341 0.7239 0.10341 0.7239 0 1.1548-0.15512 0.44814-0.17236 0.62049-0.2413l0.31025 1.3272q-0.2413 0.12065-0.84455 0.29301-0.60326 0.18959-1.3789 0.18959-0.91349 0-1.5167-0.22407-0.58602-0.2413-0.94797-0.70666-0.36196-0.46537-0.51708-1.1376-0.13788-0.68943-0.13788-1.5857v-7.9974l1.6029-0.27577zm-7.0893 7.8078q0.98244 0 1.4478-0.25854 0.48261-0.25854 0.48261-0.82732 0-0.58601-0.46537-0.93073-0.46536-0.34471-1.534-0.77561-0.51707-0.20683-0.99968-0.41366-0.46536-0.22406-0.81008-0.51707t-0.55155-0.70667-0.20683-1.0169q0-1.1893 0.87903-1.8787 0.87902-0.70667 2.3958-0.70667 0.37918 0 0.75837 0.0517 0.37919 0.0345 0.70667 0.10342 0.32747 0.0517 0.56878 0.12065 0.25854 0.0689 0.39642 0.12065l-0.29301 1.3789q-0.25853-0.13788-0.81008-0.27577-0.55154-0.15512-1.3272-0.15512-0.6722 0-1.172 0.27577-0.49984 0.25854-0.49984 0.82732 0 0.29301 0.10342 0.51707 0.12065 0.22407 0.34472 0.41366 0.2413 0.17236 0.58601 0.32748 0.34472 0.15512 0.82732 0.32748 0.63772 0.2413 1.1376 0.4826 0.49984 0.22407 0.84455 0.53431 0.36196 0.31024 0.55155 0.75837 0.18959 0.4309 0.18959 1.0686 0 1.241-0.93073 1.8787-0.9135 0.63773-2.6198 0.63773-1.1893 0-1.8615-0.20683-0.67219-0.1896-0.91349-0.29301l0.29301-1.3789q0.27577 0.10341 0.87902 0.31024 0.60326 0.20683 1.6029 0.20683zm-11.648 0q0.98244 0 1.4478-0.25854 0.48259-0.25854 0.48259-0.82732 0-0.58601-0.46536-0.93073-0.46537-0.34471-1.534-0.77561-0.51707-0.20683-0.99967-0.41366-0.46537-0.22406-0.81008-0.51707-0.34472-0.29301-0.55155-0.70667-0.20682-0.41366-0.20682-1.0169 0-1.1893 0.87902-1.8787 0.87902-0.70667 2.3958-0.70667 0.37919 0 0.75838 0.0517 0.37918 0.0345 0.70666 0.10342 0.32748 0.0517 0.56878 0.12065 0.25854 0.0689 0.39642 0.12065l-0.293 1.3789q-0.25854-0.13788-0.81008-0.27577-0.55155-0.15512-1.3272-0.15512-0.6722 0-1.172 0.27577-0.49984 0.25854-0.49984 0.82732 0 0.29301 0.10342 0.51707 0.12064 0.22407 0.34471 0.41366 0.2413 0.17236 0.58602 0.32748 0.34471 0.15512 0.82732 0.32748 0.63772 0.2413 1.1376 0.4826 0.49983 0.22407 0.84455 0.53431 0.36195 0.31024 0.55155 0.75837 0.18959 0.4309 0.18959 1.0686 0 1.241-0.93073 1.8787-0.9135 0.63773-2.6198 0.63773-1.1893 0-1.8615-0.20683-0.6722-0.1896-0.91351-0.29301l0.29302-1.3789q0.27577 0.10341 0.87902 0.31024t1.6029 0.20683zm-8.0402 0q0.56878 0 0.99968-0.0172 0.44813-0.0345 0.74114-0.10342v-2.6715q-0.17236-0.0862-0.56878-0.13789-0.37919-0.0689-0.93073-0.0689-0.36195 0-0.77561 0.0517-0.39643 0.0517-0.74114 0.22407-0.32749 0.15512-0.55155 0.44813-0.22406 0.27577-0.22406 0.74114 0 0.86178 0.55154 1.2065 0.55155 0.32748 1.4995 0.32748zm-0.13788-8.0319q0.9652 0 1.6202 0.25854 0.6722 0.2413 1.0686 0.70667 0.41366 0.44813 0.58602 1.0858 0.17235 0.62049 0.17235 1.3789v5.6016q-0.20683 0.0345-0.58601 0.10342-0.36195 0.0517-0.82732 0.10341-0.46536 0.0517-1.0169 0.0862-0.53431 0.0517-1.0686 0.0517-0.75837 0-1.3961-0.15512-0.63772-0.15512-1.1031-0.4826-0.46537-0.34472-0.7239-0.89626-0.25854-0.55155-0.25854-1.3272 0-0.74114 0.29301-1.2754 0.31025-0.53431 0.82732-0.86179t1.2065-0.4826q0.68944-0.15512 1.4478-0.15512 0.2413 0 0.49984 0.0345 0.25854 0.0172 0.4826 0.0689 0.2413 0.0345 0.41366 0.0689 0.17236 0.0345 0.2413 0.0517v-0.44814q0-0.39642-0.0862-0.77561-0.0862-0.39642-0.31025-0.68943-0.22406-0.31025-0.62048-0.4826-0.37919-0.1896-0.99968-0.1896-0.79284 0-1.3961 0.12065-0.58602 0.10342-0.87903 0.22407l-0.1896-1.3272q0.31025-0.13788 1.0342-0.25853 0.7239-0.13789 1.5685-0.13789zm-12.725 9.1867v-13.099l1.6029-0.27578v4.5847q0.44813-0.17236 0.94797-0.25854 0.51707-0.10341 1.0169-0.10341 1.0686 0 1.7753 0.31024 0.70666 0.29301 1.1203 0.84456 0.4309 0.53431 0.60326 1.2927 0.17235 0.75837 0.17235 1.6719v5.0328h-1.6029v-4.6881q0-0.82732-0.12064-1.4133-0.10342-0.58601-0.36196-0.94797-0.25853-0.36195-0.68943-0.51707-0.4309-0.17236-1.0686-0.17236-0.25853 0-0.53431 0.0345-0.27577 0.0345-0.53431 0.0862-0.2413 0.0345-0.44813 0.0862-0.18959 0.0517-0.27577 0.0862v7.4459zm-8.3475-7.0667q-0.293-0.2413-0.84455-0.46537-0.55155-0.22406-1.2065-0.22406-0.68944 0-1.1893 0.25853-0.48261 0.2413-0.79285 0.68943-0.31024 0.4309-0.44813 1.0342t-0.13789 1.2927q0 1.5685 0.77561 2.4302 0.77561 0.84455 2.0683 0.84455 0.65496 0 1.0858-0.0517 0.44813-0.0689 0.68943-0.13788zm0-6.0325 1.6029-0.27577v13.116q-0.55154 0.15512-1.4133 0.31024-0.86178 0.15513-1.9821 0.15513-1.0341 0-1.8615-0.32748t-1.4133-0.93074q-0.58602-0.60325-0.91349-1.465-0.31025-0.87902-0.31025-1.9649 0-1.0341 0.25854-1.8959 0.27577-0.86179 0.79284-1.4823 0.51708-0.62049 1.2582-0.9652 0.75837-0.34472 1.7236-0.34472 0.77561 0 1.3616 0.20683 0.60326 0.20683 0.89626 0.39642zm-8.5646 13.099h-1.6029v-8.9626h1.6029zm-0.81009-10.583q-0.43089 0-0.74113-0.27577-0.29302-0.29301-0.29302-0.77561t0.29302-0.75838q0.31024-0.29301 0.74113-0.29301 0.4309 0 0.7239 0.29301 0.31025 0.27578 0.31025 0.75838t-0.31025 0.77561q-0.293 0.27577-0.7239 0.27577zm-3.048 6.1015q0 1.0686-0.31024 1.9304-0.31024 0.86179-0.87903 1.4823-0.55154 0.62049-1.3272 0.9652-0.77561 0.32748-1.6891 0.32748-0.9135 0-1.6891-0.32748-0.77561-0.34471-1.3444-0.9652-0.55154-0.62049-0.86179-1.4823-0.31024-0.86178-0.31024-1.9304 0-1.0514 0.31024-1.9132 0.31024-0.87902 0.86179-1.4995 0.56878-0.62049 1.3444-0.94797 0.77561-0.34471 1.6891-0.34471 0.9135 0 1.6891 0.34471 0.77561 0.32748 1.3272 0.94797 0.56879 0.62049 0.87903 1.4995 0.31024 0.86179 0.31024 1.9132zm-1.6719 0q0-1.5168-0.68943-2.3958-0.67219-0.89626-1.8442-0.89626-1.172 0-1.8615 0.89626-0.6722 0.87903-0.6722 2.3958t0.6722 2.413q0.68943 0.87902 1.8615 0.87902 1.172 0 1.8442-0.87902 0.68943-0.89626 0.68943-2.413zm-8.2635 4.6537q-1.4823-0.0345-2.1028-0.63773-0.62049-0.60325-0.62049-1.8787v-10.755l1.6029-0.27578v10.772q0 0.39642 0.06894 0.65496 0.06894 0.25853 0.22406 0.41365 0.15512 0.15513 0.41366 0.24131 0.25854 0.0689 0.63773 0.12065zm-8.6435-1.3272q0.56878 0 0.99967-0.0172 0.44813-0.0345 0.74114-0.10341v-2.6716q-0.17236-0.0862-0.56878-0.13788-0.37919-0.0689-0.93073-0.0689-0.36195 0-0.77561 0.0517-0.39642 0.0517-0.74114 0.22406-0.32748 0.15512-0.55154 0.44813-0.22407 0.27577-0.22407 0.74114 0 0.86179 0.55155 1.2065 0.55154 0.32748 1.4995 0.32748zm-0.13789-8.0319q0.96521 0 1.6202 0.25853 0.6722 0.24131 1.0686 0.70667 0.41366 0.44813 0.58602 1.0859 0.17236 0.62048 0.17236 1.3789v5.6016q-0.20683 0.0345-0.58602 0.10341-0.36195 0.0517-0.82732 0.10342-0.46537 0.0517-1.0169 0.0862-0.53431 0.0517-1.0686 0.0517-0.75837 0-1.3961-0.15513-0.63772-0.15512-1.1031-0.4826-0.46537-0.34471-0.7239-0.89626-0.25854-0.55154-0.25854-1.3272 0-0.74114 0.29301-1.2754 0.31024-0.53431 0.82732-0.86179 0.51707-0.32748 1.2065-0.4826 0.68943-0.15513 1.4478-0.15513 0.2413 0 0.49984 0.0345 0.25854 0.0172 0.4826 0.0689 0.2413 0.0345 0.41366 0.0689 0.17235 0.0345 0.2413 0.0517v-0.44813q0-0.39642-0.08618-0.77561-0.08618-0.39642-0.31024-0.68943-0.22407-0.31024-0.62049-0.4826-0.37919-0.18959-0.99968-0.18959-0.79285 0-1.3961 0.12065-0.58602 0.10341-0.87902 0.22406l-0.18959-1.3272q0.31024-0.13789 1.0341-0.25854 0.7239-0.13789 1.5685-0.13789zm-7.0123 9.3935q-1.0859 0-1.9132-0.34472-0.81008-0.34471-1.3789-0.9652-0.55154-0.62049-0.82732-1.465-0.27577-0.86179-0.27577-1.8959t0.29301-1.8959q0.31024-0.86179 0.86179-1.4823 0.55154-0.63773 1.3444-0.98244 0.81008-0.36195 1.7925-0.36195 0.60325 0 1.2065 0.10341 0.60325 0.10342 1.1548 0.32748l-0.36195 1.3616q-0.36195-0.17236-0.84455-0.27577-0.46537-0.10342-0.99968-0.10342-1.3444 0-2.0683 0.84455-0.70667 0.84456-0.70667 2.4647 0 0.7239 0.15512 1.3272 0.17236 0.60325 0.51707 1.0341 0.36195 0.4309 0.9135 0.6722 0.55154 0.22406 1.3444 0.22406 0.63772 0 1.1548-0.12065 0.51707-0.12065 0.81008-0.25853l0.22406 1.3444q-0.13789 0.0862-0.39642 0.17236-0.25854 0.0689-0.58602 0.12065-0.32748 0.0689-0.70667 0.10341-0.36195 0.0517-0.70667 0.0517zm-6.1505-4.6881q0 1.0686-0.31024 1.9304-0.31024 0.86179-0.87902 1.4823-0.55154 0.62049-1.3272 0.9652-0.77561 0.32748-1.6891 0.32748-0.9135 0-1.6891-0.32748-0.77561-0.34471-1.3444-0.9652-0.55154-0.62049-0.86179-1.4823-0.31024-0.86178-0.31024-1.9304 0-1.0514 0.31024-1.9132 0.31024-0.87902 0.86179-1.4995 0.56878-0.62049 1.3444-0.94797 0.77561-0.34471 1.6891-0.34471 0.9135 0 1.6891 0.34471 0.77561 0.32748 1.3272 0.94797 0.56878 0.62049 0.87902 1.4995 0.31024 0.86179 0.31024 1.9132zm-1.6719 0q0-1.5168-0.68943-2.3958-0.6722-0.89626-1.8442-0.89626-1.172 0-1.8615 0.89626-0.6722 0.87903-0.6722 2.3958t0.6722 2.413q0.68943 0.87902 1.8615 0.87902 1.172 0 1.8442-0.87902 0.68943-0.89626 0.68943-2.413zm-7.0206-7.4631q-0.65496 1.8959-1.2582 3.5161-0.58602 1.6029-1.1548 3.0507-0.56878 1.4478-1.1376 2.775-0.55154 1.3099-1.1376 2.6026h-1.5685q-0.58602-1.2927-1.1548-2.6026-0.55154-1.3272-1.1376-2.775-0.56878-1.4478-1.172-3.0507-0.60325-1.6202-1.241-3.5161h1.8442q0.93073 2.7233 1.827 5.2397 0.89626 2.5164 1.8442 4.7226 0.94797-2.1889 1.8442-4.7054 0.89626-2.5337 1.8098-5.2569z" dominant-baseline="auto" style="font-feature-settings:normal;font-variant-alternates:normal;font-variant-caps:normal;font-variant-ligatures:normal;font-variant-numeric:normal;font-variant-position:normal;shape-padding:0;text-decoration-color:#000000;text-decoration-line:none;text-decoration-style:solid;text-indent:0;text-orientation:mixed;text-transform:none;white-space:normal"/>
	<path
		d="m31.463 23.203c0.72255 1.2524-0.18442 2.818-1.6276 2.818h-18.785c-1.4459 0-2.3487-1.568-1.6276-2.818l9.3929-16.286c0.7229-1.253 2.5335-1.2507 3.2551 0zm-11.02-3.367c-0.9945 0-1.8007 0.8062-1.8007 1.8007 0 0.9945 0.8062 1.8007 1.8007 1.8007 0.9945 0 1.8007-0.8062 1.8007-1.8007 0-0.9945-0.8062-1.8007-1.8007-1.8007zm-1.7096-6.4726 0.29038 5.3238c0.01359 0.24912 0.21957 0.44415 0.46904 0.44415h1.9004c0.24948 0 0.45546-0.19502 0.46904-0.44415l0.29038-5.3238c0.01468-0.26909-0.19956-0.49535-0.46904-0.49535h-2.4812c-0.26948 0-0.48368 0.22626-0.469 0.49535z" fill="#ff2a2a"/>
</svg>
