<?xml version="1.0" encoding="UTF-8" standalone="no"?>
<svg
   xmlns:dc="http://purl.org/dc/elements/1.1/"
   xmlns:cc="http://creativecommons.org/ns#"
   xmlns:rdf="http://www.w3.org/1999/02/22-rdf-syntax-ns#"
   xmlns:svg="http://www.w3.org/2000/svg"
   xmlns="http://www.w3.org/2000/svg"
   version="1.1"
   viewBox="0 0 338.5 190.5"
   height="720" width="1280">
  <defs id="defs2" />
  <metadata id="metadata5">
    <rdf:RDF>
      <cc:Work rdf:about="">
        <dc:format>image/svg+xml</dc:format>
        <dc:type rdf:resource="http://purl.org/dc/dcmitype/StillImage" />
        <dc:title></dc:title>
      </cc:Work>
    </rdf:RDF>
  </metadata>
  <rect style="fill:#171b21;"
     height="190.5" width="338.5"
     y="0" x="0" />
  <path
     style="fill:#ffffff"
     d="m 180.96679,79.401885 c -2.6173,-0.02476 -5.28747,1.205184 -5.7998,3.664338 -0.73896,3.547155 2.75985,4.62855 5.44882,5.300705 0.72173,0.18052 2.90289,0.679025 2.10245,1.806211 -0.72226,1.017205 -2.45881,0.916979 -3.31646,0.118497 -0.30401,-0.28304 -0.37223,-0.826178 -0.77022,-0.977026 -1.04973,-0.398176 -2.92694,-0.02962 -4.05679,-0.02962 0.15405,0.836505 0.27244,1.770883 0.76994,2.48728 1.56641,2.25544 4.7827,2.471258 7.22541,2.132075 1.83204,-0.254433 3.91386,-1.211537 4.38293,-3.197972 0.80061,-3.391154 -1.57913,-5.058955 -4.56039,-5.804312 -0.79937,-0.19971 -2.68829,-0.28313 -3.10938,-1.125144 -0.30436,-0.608724 0.48443,-1.111318 0.97731,-1.214016 0.97101,-0.202375 1.85934,0.271614 2.13207,1.214016 h 4.08641 c 0,-2.900532 -2.72615,-4.348676 -5.5123,-4.375029 z m -42.99361,0.288339 v 14.036657 h 4.08669 v -5.152868 h 5.50779 v -3.02051 h -5.50779 v -2.30982 l 6.54434,-0.08859 v -3.375997 z m 11.9043,0 v 14.036657 h 10.12771 v -3.553742 h -6.04102 V 79.690224 Z m 38.37848,0 v 14.036657 h 4.08669 v -5.508073 h 4.26415 v 5.508073 h 4.08669 V 79.690224 h -4.08669 v 5.152586 h -4.26415 l -0.20737,-5.063713 z m -22.53533,0.08887 -5.35996,13.947784 3.90895,-0.02962 1.09552,-2.013862 4.38265,0.118496 0.74031,1.92499 h 4.44218 c -1.77687,-4.788416 -5.21184,-13.829289 -5.21184,-13.829289 z m 1.74696,4.708509 1.42139,4.441894 -2.84277,-0.177744 z m 0.4438,9.811157 c -3.23536,-0.05583 -6.48482,1.810933 -6.48482,5.469139 l 3.87932,-0.08887 c 0.0119,-1.785926 2.7432,-2.75974 4.29406,-1.15505 1.53798,1.537981 1.40127,4.754171 -0.17774,6.218761 -1.52839,1.41769 -3.67537,0.53201 -4.08669,-1.42138 h -4.08641 c 0,4.95917 6.11593,6.68472 9.94968,4.76776 2.017,-1.0085 3.33947,-3.27418 3.55375,-5.47845 0.29281,-3.011991 -0.87149,-6.260176 -3.73121,-7.610526 -0.95444,-0.450725 -2.03149,-0.682772 -3.10994,-0.701382 z m -20.52119,0.316541 c 0,0 3.16945,3.71486 4.827,5.507789 -1.74303,2.98805 -3.35999,5.22276 -5.18249,8.35084 1.54046,0 3.08321,0.0458 4.61964,-0.0889 1.22302,-1.68571 2.33222,-3.43625 3.37599,-5.24146 1.67355,0.96888 1.0659,3.62072 1.0659,5.33033 h 4.08669 V 94.615309 h -4.08669 v 4.441895 c -1.34935,-1.463195 -4.08641,-4.353305 -4.08641,-4.353305 z m 45.82085,-0.0053 c -0.92159,0.0036 -1.86304,0.07612 -2.64527,0.597557 -2.01344,1.342358 -2.24898,4.668427 0.17774,5.626282 -0.75602,0.47742 -1.47275,0.77311 -1.95461,1.59913 -1.25316,2.1483 0.0373,5.07832 2.30982,5.80431 1.12665,0.3598 2.38675,0.23671 3.55374,0.23671 h 6.04102 V 94.615311 h -6.57425 c -0.29619,0 -0.60099,-0.0066 -0.90819,-0.0054 z m -10.81837,0.0054 -3.16863,0.08859 -5.18221,13.770039 h 4.4419 l 0.59219,-1.74696 4.53077,-0.1185 0.74031,1.86546 h 4.08669 l -5.03409,-13.770039 z m -44.4195,0.355205 0.0889,6.751714 2.39869,2.30982 v -4.797384 l 4.97484,4.738134 1.77687,-1.53988 -4.79738,-4.974842 h 4.61964 l -2.30982,-2.39869 z m 57.34823,2.600133 c 0.69498,-5.78e-4 1.28539,0.06517 1.28539,0.06517 v 2.30982 c -0.84788,0 -2.44419,0.310371 -3.19825,-0.08887 -0.77521,-0.410435 -0.68068,-1.524102 0,-1.954614 0.41825,-0.264472 1.21787,-0.330994 1.91286,-0.331506 z m -13.99491,1.664017 1.42139,4.442174 h -2.66503 z m 13.43008,3.260044 c 0.9465,0.004 1.85022,0.11595 1.85022,0.11595 v 2.66531 c 0,0 -2.70452,0.34164 -3.55346,-0.0889 -0.85836,-0.43531 -1.03752,-1.87472 -0.17774,-2.39869 0.38276,-0.23321 1.1448,-0.29644 1.88098,-0.2937 z" />
</svg>
